<svg xmlns="http://www.w3.org/2000/svg" width="8.121" height="10.661" viewBox="0 0 8.121 10.661">
  <g id="google-docs" transform="translate(-61)">
    <path id="Path_97" data-name="Path 97" d="M61.937,10.661h6.247a.938.938,0,0,0,.937-.937v-6.6H66.935A.938.938,0,0,1,66,2.186V0H61.937A.938.938,0,0,0,61,.937V9.724A.938.938,0,0,0,61.937,10.661Zm1.249-6.268h3.748a.312.312,0,0,1,0,.625H63.186a.312.312,0,1,1,0-.625Zm0,1.249h3.748a.312.312,0,0,1,0,.625H63.186a.312.312,0,1,1,0-.625Zm0,1.249h3.748a.312.312,0,1,1,0,.625H63.186a.312.312,0,1,1,0-.625Zm0,1.249h2.5a.312.312,0,1,1,0,.625h-2.5a.312.312,0,1,1,0-.625Z" transform="translate(0)" fill="#fbfbfb"/>
    <path id="Path_98" data-name="Path 98" d="M331.312,11.1h2L331,8.789v2A.313.313,0,0,0,331.312,11.1Z" transform="translate(-264.378 -8.606)" fill="#fbfbfb"/>
  </g>
</svg>
