<svg xmlns="http://www.w3.org/2000/svg" width="39.171" height="25.513" viewBox="0 0 39.171 25.513">
  <g id="mastercard" transform="translate(300.297 -412.783)">
    <rect id="Rectangle_27" data-name="Rectangle 27" width="38.371" height="24.713" rx="3.599" transform="translate(-299.897 413.183)" fill="#f9f9f9" stroke="#000" stroke-linecap="round" stroke-linejoin="round" stroke-width="0.8"/>
    <path id="Path_359" data-name="Path 359" d="M-296.689,455.489a6.42,6.42,0,0,1-6.42,6.42,6.42,6.42,0,0,1-6.42-6.42,6.42,6.42,0,0,1,6.42-6.42A6.42,6.42,0,0,1-296.689,455.489Z" transform="translate(17.74 -32.351)" fill="#f72000" fill-rule="evenodd"/>
    <path id="Path_360" data-name="Path 360" d="M-296.689,455.489a6.42,6.42,0,0,1-6.42,6.42,6.42,6.42,0,0,1-6.42-6.42,6.42,6.42,0,0,1,6.42-6.42A6.42,6.42,0,0,1-296.689,455.489Z" transform="translate(26.933 -32.351)" fill="#fb0" fill-rule="evenodd"/>
    <path id="Path_361" data-name="Path 361" d="M-296.689,455.489a6.42,6.42,0,0,1-6.42,6.42,6.42,6.42,0,0,1-6.42-6.42,6.42,6.42,0,0,1,6.42-6.42A6.42,6.42,0,0,1-296.689,455.489Z" transform="translate(17.74 -32.351)" fill="rgba(247,32,0,0.38)" fill-rule="evenodd"/>
    <g id="Group_111" data-name="Group 111" transform="translate(-296.122 430.937)">
      <path id="Path_362" data-name="Path 362" d="M-293.678,442.514h1.467l.566,2.917.564-2.917h1.463v4.795h-.911v-3.657l-.707,3.657h-.825l-.7-3.657v3.657h-.914Zm5.616,2.446-.958-.134a1.721,1.721,0,0,1,.156-.525.987.987,0,0,1,.294-.332,1.031,1.031,0,0,1,.379-.157,2.324,2.324,0,0,1,.522-.056,3.148,3.148,0,0,1,.724.067.854.854,0,0,1,.456.28,1.054,1.054,0,0,1,.2.417,1.95,1.95,0,0,1,.074.515v1.534a2.444,2.444,0,0,0,.023.384,2.107,2.107,0,0,0,.1.355h-.941a1.5,1.5,0,0,1-.074-.2,1.961,1.961,0,0,1-.034-.221,1.357,1.357,0,0,1-.392.36,1.279,1.279,0,0,1-.618.144.877.877,0,0,1-.71-.288,1.064,1.064,0,0,1-.243-.71,1.127,1.127,0,0,1,.175-.651,1.083,1.083,0,0,1,.645-.379q.564-.151.731-.211a2.865,2.865,0,0,0,.355-.159.576.576,0,0,0-.076-.343.321.321,0,0,0-.268-.1.558.558,0,0,0-.369.1.6.6,0,0,0-.155.307Zm.869.7a3.9,3.9,0,0,1-.431.173.894.894,0,0,0-.387.213.39.39,0,0,0-.084.245.39.39,0,0,0,.082.257.3.3,0,0,0,.243.1.509.509,0,0,0,.311-.108.6.6,0,0,0,.2-.263,1.133,1.133,0,0,0,.06-.4Zm1.408.687.995-.124a.684.684,0,0,0,.172.337.421.421,0,0,0,.3.1.415.415,0,0,0,.313-.114.286.286,0,0,0,.086-.213.255.255,0,0,0-.113-.222,1.663,1.663,0,0,0-.431-.137,3.591,3.591,0,0,1-.725-.224.835.835,0,0,1-.342-.348,1.114,1.114,0,0,1-.139-.559,1.123,1.123,0,0,1,.15-.592.933.933,0,0,1,.414-.371,1.7,1.7,0,0,1,.707-.123,1.874,1.874,0,0,1,.691.095.9.9,0,0,1,.372.294,1.687,1.687,0,0,1,.247.54l-.95.124a.456.456,0,0,0-.123-.245.416.416,0,0,0-.286-.1.332.332,0,0,0-.247.08.269.269,0,0,0-.078.195.217.217,0,0,0,.1.193,1.267,1.267,0,0,0,.428.118,2.329,2.329,0,0,1,.744.209.9.9,0,0,1,.373.383,1.166,1.166,0,0,1,.129.546,1.338,1.338,0,0,1-.137.585,1.03,1.03,0,0,1-.431.453,1.616,1.616,0,0,1-.8.168,1.526,1.526,0,0,1-1.021-.271A1.289,1.289,0,0,1-285.784,446.347Zm4.469-3.833v1.321h.552v.971h-.552v1.233a.861.861,0,0,0,.032.294.174.174,0,0,0,.172.111.866.866,0,0,0,.31-.085l.074.919a2.5,2.5,0,0,1-.694.108.952.952,0,0,1-.552-.128.743.743,0,0,1-.262-.388,2.978,2.978,0,0,1-.085-.842v-1.223h-.369v-.971h.369V443.2Zm3.93,3.388h-2.009a1.045,1.045,0,0,0,.13.477.436.436,0,0,0,.379.226.465.465,0,0,0,.281-.1.783.783,0,0,0,.175-.219l.987.121a1.74,1.74,0,0,1-.547.751,1.573,1.573,0,0,1-.918.227,1.483,1.483,0,0,1-.817-.195,1.426,1.426,0,0,1-.494-.618,2.354,2.354,0,0,1-.2-1,2.083,2.083,0,0,1,.393-1.318,1.3,1.3,0,0,1,1.085-.5,1.532,1.532,0,0,1,.886.226,1.4,1.4,0,0,1,.495.654,3.071,3.071,0,0,1,.17,1.115Zm-1.019-.638a1.069,1.069,0,0,0-.156-.553.4.4,0,0,0-.334-.167.429.429,0,0,0-.382.252,1.135,1.135,0,0,0-.116.468Zm1.495-1.429h.938v.569a1.4,1.4,0,0,1,.279-.509.493.493,0,0,1,.356-.139.87.87,0,0,1,.485.183l-.31.948a.638.638,0,0,0-.281-.1.335.335,0,0,0-.305.216,2.82,2.82,0,0,0-.155,1.138v1.164h-1.007Zm4.7,1.514.978.393a2.819,2.819,0,0,1-.31.912,1.492,1.492,0,0,1-.526.553,1.546,1.546,0,0,1-.8.186,1.825,1.825,0,0,1-.962-.227,1.8,1.8,0,0,1-.644-.8,3.435,3.435,0,0,1-.271-1.465,3.021,3.021,0,0,1,.476-1.83,1.582,1.582,0,0,1,1.348-.639,1.5,1.5,0,0,1,1.072.366,2.259,2.259,0,0,1,.58,1.125l-.985.291a1.32,1.32,0,0,0-.108-.32.735.735,0,0,0-.229-.262.528.528,0,0,0-.3-.092.631.631,0,0,0-.581.406,2.2,2.2,0,0,0-.153.945,2.278,2.278,0,0,0,.182,1.094.571.571,0,0,0,.512.3.549.549,0,0,0,.484-.239A1.728,1.728,0,0,0-272.215,445.349Zm2.364-.389-.958-.134a1.721,1.721,0,0,1,.156-.525.987.987,0,0,1,.294-.332,1.031,1.031,0,0,1,.379-.157,2.324,2.324,0,0,1,.522-.056,3.148,3.148,0,0,1,.724.067.854.854,0,0,1,.456.28,1.054,1.054,0,0,1,.2.417,1.952,1.952,0,0,1,.074.515v1.534a2.445,2.445,0,0,0,.023.384,2.1,2.1,0,0,0,.1.355h-.941a1.492,1.492,0,0,1-.074-.2,1.965,1.965,0,0,1-.034-.221,1.357,1.357,0,0,1-.392.36,1.278,1.278,0,0,1-.618.144.877.877,0,0,1-.71-.288,1.064,1.064,0,0,1-.243-.71,1.127,1.127,0,0,1,.175-.651,1.083,1.083,0,0,1,.645-.379q.564-.151.731-.211a2.868,2.868,0,0,0,.355-.159.576.576,0,0,0-.076-.343.321.321,0,0,0-.268-.1.559.559,0,0,0-.369.1.6.6,0,0,0-.155.307Zm.869.7a3.9,3.9,0,0,1-.431.173.894.894,0,0,0-.387.213.39.39,0,0,0-.084.245.39.39,0,0,0,.082.257.3.3,0,0,0,.243.1.509.509,0,0,0,.311-.108.6.6,0,0,0,.2-.263,1.134,1.134,0,0,0,.06-.4Zm1.6-1.825h.938v.569a1.394,1.394,0,0,1,.279-.509.493.493,0,0,1,.356-.139.87.87,0,0,1,.485.183l-.31.948a.637.637,0,0,0-.281-.1.335.335,0,0,0-.305.216,2.82,2.82,0,0,0-.155,1.138v1.164h-1.007Zm4.979-1.321v4.795h-.938V446.8a1.482,1.482,0,0,1-.359.442.827.827,0,0,1-.483.15.885.885,0,0,1-.816-.54,2.8,2.8,0,0,1-.282-1.312,2.344,2.344,0,0,1,.311-1.321.928.928,0,0,1,.792-.458.869.869,0,0,1,.425.1,1.016,1.016,0,0,1,.339.314v-1.661Zm-1,3.048a1.137,1.137,0,0,0-.13-.61.384.384,0,0,0-.33-.2.342.342,0,0,0-.293.193,1.306,1.306,0,0,0-.118.648,1.225,1.225,0,0,0,.122.623.353.353,0,0,0,.3.2.374.374,0,0,0,.32-.2,1.25,1.25,0,0,0,.128-.651Z" transform="translate(293.678 -442.432)"/>
    </g>
  </g>
</svg>
