<svg id="PDF_Icon" data-name="PDF Icon" xmlns="http://www.w3.org/2000/svg" width="16.953" height="24.582" viewBox="0 0 16.953 24.582">
  <path id="Path_271" data-name="Path 271" d="M16.953,23.31H0V0H13.139l3.814,3.814Zm0,0" fill="#e3e4d8"/>
  <path id="Path_272" data-name="Path 272" d="M273.656,0V3.814h3.814Zm0,0" transform="translate(-260.518)" fill="#d0cebd"/>
  <path id="Path_273" data-name="Path 273" d="M0,353.1H16.953v7.629H0Zm0,0" transform="translate(0 -336.149)" fill="#b53438"/>
  <g id="Group_99" data-name="Group 99" transform="translate(2.119 18.224)">
    <path id="Path_274" data-name="Path 274" d="M44.561,384.672a.424.424,0,0,1-.424-.424V380.01a.424.424,0,0,1,.848,0v4.238A.424.424,0,0,1,44.561,384.672Zm0,0" transform="translate(-44.137 -379.586)" fill="#fff"/>
    <path id="Path_275" data-name="Path 275" d="M241.311,380.434h-2.543a.424.424,0,0,1,0-.848h2.543a.424.424,0,1,1,0,.848Zm0,0" transform="translate(-229.02 -379.586)" fill="#fff"/>
    <path id="Path_276" data-name="Path 276" d="M241.311,424.57h-2.543a.424.424,0,0,1,0-.848h2.543a.424.424,0,1,1,0,.848Zm0,0" transform="translate(-229.02 -421.604)" fill="#fff"/>
    <path id="Path_277" data-name="Path 277" d="M238.768,384.672a.424.424,0,0,1-.424-.424V380.01a.424.424,0,0,1,.848,0v4.238A.424.424,0,0,1,238.768,384.672Zm0,0" transform="translate(-229.02 -379.586)" fill="#fff"/>
  </g>
  <path id="Path_278" data-name="Path 278" d="M83.8,80.2a.991.991,0,0,0,.041,1.341c.4-.882-.022-1.347-.041-1.341m.257,3.53a29.557,29.557,0,0,1-1.13,3.155,21.309,21.309,0,0,1,2.743-.842,14.273,14.273,0,0,1-1.614-2.312m3.155,2.745c.344.261.428.394.654.394a.538.538,0,0,0,.608-.356c-.052-.028-.121-.082-.5-.082a6.192,6.192,0,0,0-.765.045m-5.759,1.853c-.9.5-1.271.912-1.3,1.144,0,.039-.016.14.182.289.063-.02.431-.185,1.115-1.433m-1.125,2.138a.683.683,0,0,1-.408-.136,1,1,0,0,1-.471-.936c.077-.679.927-1.39,2.528-2.114a27.777,27.777,0,0,0,1.6-4.484c-.421-.906-.831-2.081-.533-2.771a.806.806,0,0,1,.479-.507,2.128,2.128,0,0,1,.429-.071c.222,0,.435.264.537.436a1.717,1.717,0,0,1,.161,1.049,9.306,9.306,0,0,1-.157,1.037c-.05.252-.106.5-.167.752a13.312,13.312,0,0,0,2.148,3.154,8.334,8.334,0,0,1,1.419-.149c.661,0,1.062.152,1.225.465a.835.835,0,0,1-.165.9,1.125,1.125,0,0,1-.937.5,2.819,2.819,0,0,1-1.779-.953,20.441,20.441,0,0,0-3.728,1.177A11.8,11.8,0,0,1,81.5,89.589c-.432.6-.805.879-1.175.879" transform="translate(-75.627 -75.635)" fill="#b53438"/>
  <path id="Path_279" data-name="Path 279" d="M45.832,382.977H44.561a.424.424,0,0,1-.424-.424V380.01a.424.424,0,0,1,.424-.424h1.272a1.7,1.7,0,0,1,0,3.391Zm-.848-.848h.848a.848.848,0,0,0,0-1.7h-.848Zm0,0" transform="translate(-42.018 -361.362)" fill="#fff"/>
  <path id="Path_280" data-name="Path 280" d="M142.09,384.672h-.424a.424.424,0,0,1-.424-.424V380.01a.424.424,0,0,1,.424-.424h.424a2.543,2.543,0,0,1,0,5.086Zm0-.848h0Zm0-3.391v3.391a1.7,1.7,0,0,0,0-3.391Zm0,0" transform="translate(-134.461 -361.362)" fill="#fff"/>
</svg>
