<svg xmlns="http://www.w3.org/2000/svg" width="48.533" height="48.533" viewBox="0 0 48.533 48.533">
  <g id="Data_Manu_Icon" data-name="Data Manu Icon" transform="translate(0 0)">
    <path id="Path_37" data-name="Path 37" d="M34.282,18.557a4.282,4.282,0,0,0,3.86-6.136l4.8-4.869a4.271,4.271,0,0,0,5.723-.181l4.364,4.219A4.282,4.282,0,1,0,61.4,12.948l4.125-2.772a4.28,4.28,0,1,0-1.268-3.038,4.339,4.339,0,0,0,.022.436l-3.836,2.577a4.274,4.274,0,0,0-5.7-.867L49.967,4.66c.011-.125.018-.25.018-.378a4.282,4.282,0,1,0-8.509.689l-5.357,5.436a4.282,4.282,0,1,0-1.837,8.15Z" transform="translate(-27.145)" fill="#ebebeb"/>
    <path id="Path_38" data-name="Path 38" d="M44.251,181.4V154.282h-5.71V181.4h-5.71V158.565h-5.71V181.4h-5.71V150H15.7v31.4H9.992V161.42H4.282V181.4H0v2.855H48.533V181.4Z" transform="translate(0 -135.725)" fill="#ebebeb"/>
  </g>
</svg>
