<svg xmlns="http://www.w3.org/2000/svg" width="16.476" height="19.545" viewBox="0 0 16.476 19.545">
  <g id="Equipment_Involved_Overview_Icon" data-name="Equipment Involved Overview Icon" transform="translate(-40.206)">
    <path id="Path_19" data-name="Path 19" d="M96.566,4.456H94.992V3.189a.573.573,0,0,0-.573-.573h-.041V1.145h.041A.573.573,0,0,0,94.42,0H90.74a.573.573,0,0,0,0,1.145h.041V2.616H90.74a.573.573,0,0,0-.573.573V9.322a.573.573,0,0,0,.573.573h3.68a.573.573,0,0,0,.573-.573V8.055h1.574a2.8,2.8,0,0,1,0,5.6H88.9a.573.573,0,0,0-.573.573v3.026h8.239a6.407,6.407,0,0,0,6.4-6.4h0a6.406,6.406,0,0,0-6.4-6.4Zm-2.147,3.6a1.8,1.8,0,1,1,1.8-1.8A1.8,1.8,0,0,1,94.42,8.055Z" transform="translate(-46.284 0)" fill="#474747"/>
    <path id="Path_20" data-name="Path 20" d="M155.619,290.345a.573.573,0,0,0,.573-.573V289.2h-3.6v.573a.573.573,0,0,0,.573.573Z" transform="translate(-108.097 -278.16)" fill="#474747"/>
    <path id="Path_21" data-name="Path 21" d="M51.816,482H40.776a.573.573,0,0,0,0,1.145h11.04A.573.573,0,0,0,51.816,482Z" transform="translate(0 -463.6)" fill="#474747"/>
    <path id="Path_22" data-name="Path 22" d="M231.448,146.733a.654.654,0,1,0,.654.654A.655.655,0,0,0,231.448,146.733Z" transform="translate(-183.312 -141.132)" fill="#474747"/>
  </g>
</svg>
