<svg xmlns="http://www.w3.org/2000/svg" width="49.347" height="56.146" viewBox="0 0 49.347 56.146">
  <g id="headphones" transform="translate(-31)">
    <g id="Group_138" data-name="Group 138" transform="translate(37.58 23.029)">
      <g id="Group_137" data-name="Group 137" transform="translate(0)">
        <path id="Path_377" data-name="Path 377" d="M95.935,210A4.94,4.94,0,0,0,91,214.935v13.379a4.935,4.935,0,1,0,9.869,0V214.935A4.94,4.94,0,0,0,95.935,210Z" transform="translate(-91 -210)" fill="#ebebeb"/>
      </g>
    </g>
    <g id="Group_140" data-name="Group 140" transform="translate(31 26.578)">
      <g id="Group_139" data-name="Group 139" transform="translate(0)">
        <path id="Path_378" data-name="Path 378" d="M34.29,243.751a8.161,8.161,0,0,1,.14-1.385A4.925,4.925,0,0,0,31,247.041v6.8a4.925,4.925,0,0,0,3.43,4.675,8.161,8.161,0,0,1-.14-1.385Z" transform="translate(-31 -242.366)" fill="#ebebeb"/>
      </g>
    </g>
    <g id="Group_142" data-name="Group 142" transform="translate(50.739 23.029)">
      <g id="Group_141" data-name="Group 141" transform="translate(0)">
        <path id="Path_379" data-name="Path 379" d="M229.094,210a4.94,4.94,0,0,0-4.935,4.935v13.379a4.94,4.94,0,0,0,4.935,4.935,4.868,4.868,0,0,0,1.414-.231,4.925,4.925,0,0,1-4.7,3.521h-5.238a4.935,4.935,0,1,0,0,3.29H225.8a8.234,8.234,0,0,0,8.225-8.225V214.935A4.94,4.94,0,0,0,229.094,210Z" transform="translate(-211 -210)" fill="#ebebeb"/>
      </g>
    </g>
    <g id="Group_144" data-name="Group 144" transform="translate(76.918 26.578)">
      <g id="Group_143" data-name="Group 143">
        <path id="Path_380" data-name="Path 380" d="M449.722,242.366a8.163,8.163,0,0,1,.14,1.385V257.13a8.163,8.163,0,0,1-.14,1.385,4.925,4.925,0,0,0,3.43-4.675v-6.8A4.925,4.925,0,0,0,449.722,242.366Z" transform="translate(-449.722 -242.366)" fill="#ebebeb"/>
      </g>
    </g>
    <g id="Group_146" data-name="Group 146" transform="translate(31)">
      <g id="Group_145" data-name="Group 145" transform="translate(0)">
        <path id="Path_381" data-name="Path 381" d="M55.674,0A24.7,24.7,0,0,0,31,24.674v.042a8.145,8.145,0,0,1,3.365-1.528,21.359,21.359,0,0,1,42.617,0,8.148,8.148,0,0,1,3.365,1.528v-.042A24.7,24.7,0,0,0,55.674,0Z" transform="translate(-31)" fill="#ebebeb"/>
      </g>
    </g>
  </g>
</svg>
