<svg id="_x33_0" enable-background="new 0 0 64 64" height="512" viewBox="0 0 64 64" width="512" xmlns="http://www.w3.org/2000/svg"><g><path d="m61 7h-6v-4c0-1.103-.897-2-2-2h-4c-1.103 0-2 .897-2 2v4h-10.62l-.396-2.179-1.967.357.331 1.822h-5.348v-4c0-1.103-.897-2-2-2h-2c-1.103 0-2 .897-2 2v4h-2v-4c0-1.103-.897-2-2-2h-2c-1.103 0-2 .897-2 2v4h-2v-4c0-1.103-.897-2-2-2h-2c-1.103 0-2 .897-2 2v4h-4c-1.103 0-2 .897-2 2v26c0 1.103.897 2 2 2v24c0 1.103.897 2 2 2h54c1.103 0 2-.897 2-2v-24c1.103 0 2-.897 2-2v-26c0-1.103-.897-2-2-2zm-17.999 15.627v4.373h-8.001v-10h8l.001 5.606c0 .004-.001.007-.001.011s.001.007.001.01zm5.999-15.627h4v9.414l2.442 2.442c1.004 1.005 1.558 2.341 1.558 3.762 0 1.756-.859 3.388-2.305 4.382h-7.391c-1.444-.993-2.304-2.625-2.304-4.382 0-1.421.554-2.757 1.558-3.762l2.442-2.442zm4-4v2h-4v-2zm-6 6v6.586l-1.856 1.856c-.051.051-.095.106-.144.158v-.6c0-1.103-.897-2-2-2h-5.166l-1.091-6zm-36 6h-2v-8h2zm18 2 .001 4h-22.001v-4zm-10-2h-2v-8h2zm6 0v-8h2v8zm2-12v2h-2v-2zm-4 6v6h-2v-6zm-4-6v2h-2v-2zm-4 6v6h-2v-6zm-4-6v2h-2v-2zm-4 6v6c-1.103 0-2 .897-2 2v4c0 1.103.897 2 2 2h22c1.103 0 2-.897 2-2v-4c0-1.103-.897-2-2-2v-6h5.711l1.091 6h-.802c-1.103 0-2 .897-2 2v10c0 1.103.897 2 2 2h8c.91 0 1.672-.615 1.913-1.449.396.433.845.823 1.345 1.156.287.191.621.293.966.293h7.553c.345 0 .679-.102.964-.292 2.041-1.36 3.26-3.637 3.26-6.09 0-1.955-.761-3.793-2.144-5.176l-1.857-1.856v-6.586h6v22h-58v-22zm26 52h-10v-18h10zm-12 0h-10v-18h10zm32 0h-12v-18h12zm6 0h-4v-20h-16v20h-4v-20h-26v20h-4v-24h54zm-56-26v-2h58v2z"/><path d="m45 45h4v2h-4z"/><path d="m25 45h4v2h-4z"/><path d="m15 45h4v2h-4z"/></g></svg>