<svg id="Profile_View_Icon" data-name="Profile View Icon" xmlns="http://www.w3.org/2000/svg" width="15.827" height="18.971" viewBox="0 0 15.827 18.971">
  <path id="Path_53" data-name="Path 53" d="M91.6,9.138A4.421,4.421,0,0,0,94.832,7.8,4.421,4.421,0,0,0,96.17,4.569a4.422,4.422,0,0,0-1.339-3.231,4.568,4.568,0,0,0-6.461,0,4.421,4.421,0,0,0-1.339,3.23A4.421,4.421,0,0,0,88.37,7.8,4.422,4.422,0,0,0,91.6,9.138Zm0,0" transform="translate(-83.807 0)" fill="#474747"/>
  <path id="Path_54" data-name="Path 54" d="M15.789,252.74a11.285,11.285,0,0,0-.154-1.2,9.444,9.444,0,0,0-.295-1.205,5.953,5.953,0,0,0-.5-1.124,4.241,4.241,0,0,0-.747-.974,3.294,3.294,0,0,0-1.073-.674,3.709,3.709,0,0,0-1.37-.248,1.391,1.391,0,0,0-.743.315c-.223.145-.483.313-.774.5a4.433,4.433,0,0,1-1,.441,3.887,3.887,0,0,1-2.449,0,4.422,4.422,0,0,1-1-.441c-.288-.184-.548-.352-.774-.5a1.389,1.389,0,0,0-.742-.315,3.7,3.7,0,0,0-1.37.248,3.291,3.291,0,0,0-1.073.674,4.242,4.242,0,0,0-.747.973,5.965,5.965,0,0,0-.5,1.124,9.468,9.468,0,0,0-.295,1.205,11.247,11.247,0,0,0-.154,1.2c-.025.363-.038.74-.038,1.12a3.15,3.15,0,0,0,.936,2.383,3.368,3.368,0,0,0,2.411.879h9.134a3.367,3.367,0,0,0,2.411-.879,3.149,3.149,0,0,0,.936-2.383c0-.382-.013-.759-.038-1.121Zm0,0" transform="translate(0 -238.153)" fill="#474747"/>
</svg>
