<svg id="Project_Deadline_Overview_Icon" data-name="Project Deadline Overview Icon" xmlns="http://www.w3.org/2000/svg" width="68" height="68" viewBox="0 0 68 68">
  <g id="Group_31" data-name="Group 31">
    <path id="Path_68" data-name="Path 68" d="M62.333,40.406V11.333a5.673,5.673,0,0,0-5.667-5.667H49.583a1.416,1.416,0,0,0-1.417,1.417v7.083a2.833,2.833,0,1,1-3.774-2.653,1.418,1.418,0,0,0,.941-1.335V1.417a1.417,1.417,0,1,0-2.833,0v4.25H21.25a1.416,1.416,0,0,0-1.417,1.417v7.083a2.833,2.833,0,1,1-3.774-2.653A1.418,1.418,0,0,0,17,10.178V1.417a1.417,1.417,0,1,0-2.833,0v4.25h-8.5A5.673,5.673,0,0,0,0,11.333V56.667a5.673,5.673,0,0,0,5.667,5.667H40.406A15.577,15.577,0,1,0,62.333,40.406Zm-25.5,12.011a15.515,15.515,0,0,0,.6,4.25H5.667v-34h51V37.438A15.542,15.542,0,0,0,36.833,52.417Zm20.835,5.252a1.416,1.416,0,0,1-2,0l-4.25-4.25a1.416,1.416,0,0,1-.415-1v-8.5a1.417,1.417,0,1,1,2.833,0V51.83l3.835,3.835A1.416,1.416,0,0,1,57.668,57.668Z" fill="#474747"/>
  </g>
</svg>
