<svg xmlns="http://www.w3.org/2000/svg" width="49.678" height="49.678" viewBox="0 0 49.678 49.678">
  <g id="Publish_Menu_Icon" data-name="Publish Menu Icon" transform="translate(0)">
    <path id="Path_41" data-name="Path 41" d="M9.614,365.248H1.458a1.452,1.452,0,1,1,0-2.9H9.614a1.452,1.452,0,1,1,0,2.9Z" transform="translate(0 -327.187)" fill="#ebebeb"/>
    <path id="Path_42" data-name="Path 42" d="M48.22,484.972H1.458a1.452,1.452,0,1,1,0-2.9H48.22a1.452,1.452,0,1,1,0,2.9Z" transform="translate(0 -435.295)" fill="#ebebeb"/>
    <path id="Path_43" data-name="Path 43" d="M48.22,425.111H1.458a1.452,1.452,0,1,1,0-2.9H48.22a1.452,1.452,0,1,1,0,2.9Z" transform="translate(0 -381.242)" fill="#ebebeb"/>
    <path id="Path_44" data-name="Path 44" d="M234.631,1.45a5.01,5.01,0,0,0-7.051,0L206.555,22.4l7.037,7.037L234.632,8.474a4.959,4.959,0,0,0,0-7.024Z" transform="translate(-186.514)" fill="#ebebeb"/>
    <path id="Path_45" data-name="Path 45" d="M151.389,251.991a1.448,1.448,0,0,0-.327.5l-3.217,8.175a1.456,1.456,0,0,0,1.889,1.882l8.206-3.2a1.456,1.456,0,0,0,.485-.312Z" transform="translate(-133.41 -227.541)" fill="#ebebeb"/>
  </g>
</svg>
