<svg xmlns="http://www.w3.org/2000/svg" width="53.668" height="45.526" viewBox="0 0 53.668 45.526">
  <g id="Team_Menu_Icon" data-name="Team Menu Icon" transform="translate(0 -38.84)">
    <g id="Group_4" data-name="Group 4" transform="translate(41.77 63.418)">
      <g id="Group_3" data-name="Group 3">
        <path id="Path_23" data-name="Path 23" d="M402.644,273.32h-4.15a10.8,10.8,0,0,1,.654,3.711v15.686a4.625,4.625,0,0,1-.267,1.549h6.862a4.654,4.654,0,0,0,4.648-4.648v-8.551A7.756,7.756,0,0,0,402.644,273.32Z" transform="translate(-398.494 -273.32)" fill="#ebebeb"/>
      </g>
    </g>
    <g id="Group_6" data-name="Group 6" transform="translate(0 63.418)">
      <g id="Group_5" data-name="Group 5">
        <path id="Path_24" data-name="Path 24" d="M11.244,277.032a10.8,10.8,0,0,1,.654-3.711H7.747A7.756,7.756,0,0,0,0,281.068v8.551a4.654,4.654,0,0,0,4.648,4.648H11.51a4.627,4.627,0,0,1-.267-1.55Z" transform="translate(0 -273.321)" fill="#ebebeb"/>
      </g>
    </g>
    <g id="Group_8" data-name="Group 8" transform="translate(14.343 59.382)">
      <g id="Group_7" data-name="Group 7">
        <path id="Path_25" data-name="Path 25" d="M154.065,234.815h-9.489a7.756,7.756,0,0,0-7.747,7.747v15.686a1.55,1.55,0,0,0,1.549,1.549h21.884a1.549,1.549,0,0,0,1.549-1.549V242.562A7.756,7.756,0,0,0,154.065,234.815Z" transform="translate(-136.829 -234.815)" fill="#ebebeb"/>
      </g>
    </g>
    <g id="Group_10" data-name="Group 10" transform="translate(17.517 38.84)">
      <g id="Group_9" data-name="Group 9" transform="translate(0 0)">
        <path id="Path_26" data-name="Path 26" d="M176.431,38.84a9.316,9.316,0,1,0,9.317,9.317A9.328,9.328,0,0,0,176.431,38.84Z" transform="translate(-167.114 -38.84)" fill="#ebebeb"/>
      </g>
    </g>
    <g id="Group_12" data-name="Group 12" transform="translate(3.506 47.524)">
      <g id="Group_11" data-name="Group 11" transform="translate(0 0)">
        <path id="Path_27" data-name="Path 27" d="M40.411,121.689a6.965,6.965,0,1,0,6.968,6.968A6.976,6.976,0,0,0,40.411,121.689Z" transform="translate(-33.443 -121.689)" fill="#ebebeb"/>
      </g>
    </g>
    <g id="Group_14" data-name="Group 14" transform="translate(36.227 47.524)">
      <g id="Group_13" data-name="Group 13" transform="translate(0 0)">
        <path id="Path_28" data-name="Path 28" d="M352.575,121.689a6.968,6.968,0,1,0,6.968,6.968A6.976,6.976,0,0,0,352.575,121.689Z" transform="translate(-345.607 -121.689)" fill="#ebebeb"/>
      </g>
    </g>
  </g>
</svg>
