<svg id="Capa_1" enable-background="new 0 0 512 512" height="512" viewBox="0 0 512 512" width="512" xmlns="http://www.w3.org/2000/svg"><g><path d="m220.398 407.917h71.203v104.083h-71.203z"/><path d="m134.938 189.924v17.521 304.555h55.46v-134.083h131.203v134.083h55.46v-304.555-17.521l-121.061-60.03zm70.46 150.659h-33.734v-30h33.734zm0-67.469h-33.734v-30h33.734zm67.469 67.469h-33.734v-30h33.734zm0-67.469h-33.734v-30h33.734zm33.735-30h33.734v30h-33.734zm0 67.469h33.734v30h-33.734zm-33.735-104.938h-33.734v-30h33.734z"/><path d="m407.062 237.445v274.555h104.938v-274.555zm69.336 219.746h-33.734v-30h33.734zm0-67.468h-33.734v-30h33.734zm0-67.469h-33.734v-30h33.734z"/><path d="m0 512h104.938v-274.555h-104.938zm35.602-219.746h33.734v30h-33.734zm0 67.469h33.734v30h-33.734zm0 67.468h33.734v30h-33.734z"/><path d="m271 103.845v-56.376h61.203v-47.469h-91.203v103.845l15-7.438z"/></g></svg>