<svg xmlns="http://www.w3.org/2000/svg" width="57.493" height="51.033" viewBox="0 0 57.493 51.033">
  <path id="user-list" d="M56.736,27.684a2.9,2.9,0,0,0-2.145-.947H2.9A2.9,2.9,0,0,0,.012,29.907L2.77,59.532a2.9,2.9,0,0,0,2.889,2.633H51.833a2.9,2.9,0,0,0,2.889-2.633L57.48,29.907A2.9,2.9,0,0,0,56.736,27.684Zm-18.312,28.4H19.074a2.9,2.9,0,0,1-2.9-2.9,7.154,7.154,0,0,1,7.146-7.146H25.4a6.941,6.941,0,1,1,6.69,0h2.082a7.155,7.155,0,0,1,7.142,6.906c.006.079.01.159.01.24A2.9,2.9,0,0,1,38.424,56.088ZM51.911,21.335a2.176,2.176,0,0,1-2.176,2.176H7.758a2.176,2.176,0,1,1,0-4.352H49.734A2.176,2.176,0,0,1,51.911,21.335Zm-5.745-8.028a2.176,2.176,0,0,1-2.176,2.176H13.5a2.176,2.176,0,0,1,0-4.352H43.989A2.176,2.176,0,0,1,46.165,13.307Z" transform="translate(0 -11.131)" fill="#ebebeb"/>
</svg>
