<svg xmlns="http://www.w3.org/2000/svg" width="65.152" height="68" viewBox="0 0 65.152 68">
  <g id="Compeleted_Tasks_Overview_Icon" data-name="Compeleted Tasks Overview Icon" transform="translate(-0.985)">
    <g id="Layer_1_22_" transform="translate(0.985)">
      <g id="Group_32" data-name="Group 32">
        <path id="Path_69" data-name="Path 69" d="M8.415,55.732V7.431h39.01V48l7.432-6.139V3.715A3.715,3.715,0,0,0,51.143,0H4.7A3.715,3.715,0,0,0,.985,3.715V59.446A3.715,3.715,0,0,0,4.7,63.162H37.12l-5.252-7.43Z" transform="translate(-0.985)" fill="#474747"/>
        <path id="Path_70" data-name="Path 70" d="M56.011,27.765a1.858,1.858,0,0,0-2.457-.082L36.513,41.767,25.157,34.953a1.858,1.858,0,0,0-2.473,2.665L34.991,55.034a1.861,1.861,0,0,0,1.5.786h.017a1.851,1.851,0,0,0,1.5-.76l18.23-24.847A1.862,1.862,0,0,0,56.011,27.765Z" transform="translate(8.559 12.18)" fill="#474747"/>
        <path id="Path_71" data-name="Path 71" d="M35.338,8.988H13.044a3.715,3.715,0,0,0,0,7.431H35.337a3.715,3.715,0,0,0,0-7.431Z" transform="translate(2.744 4.016)" fill="#474747"/>
        <path id="Path_72" data-name="Path 72" d="M35.338,16.691H13.044a3.715,3.715,0,0,0,0,7.431H35.337a3.715,3.715,0,0,0,0-7.431Z" transform="translate(2.744 7.458)" fill="#474747"/>
        <path id="Path_73" data-name="Path 73" d="M35.338,24.4H13.044a3.715,3.715,0,0,0,0,7.431H35.337a3.715,3.715,0,0,0,0-7.431Z" transform="translate(2.744 10.901)" fill="#474747"/>
      </g>
    </g>
  </g>
</svg>
