<svg xmlns="http://www.w3.org/2000/svg" width="16.037" height="14.095" viewBox="0 0 16.037 14.095"><g transform="translate(0 -30.988)"><path d="M.469,158.505H12.748a.471.471,0,0,0,.3-.109c.118-.1,2.808-2.413,2.972-7.409H2.834a9.429,9.429,0,0,1-2.667,6.687.47.47,0,0,0,.3.83Z" transform="translate(0 -116.241)" fill="#ebebeb"/><path d="M103.693,31.928h-2.349v-.47a.47.47,0,0,0-.94,0v.47H98.024v-.47a.47.47,0,0,0-.94,0v.47H94.735v-.47a.47.47,0,0,0-.94,0v.47H91.446a.465.465,0,0,0-.47.47v1.41h13.187V32.4A.465.465,0,0,0,103.693,31.928Z" transform="translate(-88.126 0)" fill="#ebebeb"/><path d="M101.779,301.372a1.414,1.414,0,0,1-.9.328h-9.9v1.41a.47.47,0,0,0,.47.47h12.247a.47.47,0,0,0,.47-.47v-5.267A9.312,9.312,0,0,1,101.779,301.372Z" transform="translate(-88.127 -258.496)" fill="#ffffff"/></g></svg>