<svg xmlns="http://www.w3.org/2000/svg" width="40.88" height="40.88" viewBox="0 0 40.88 40.88"><g transform="translate(0 0)"><path d="M33.607,15.631a3.607,3.607,0,0,0,3.251-5.168l4.042-4.1a3.6,3.6,0,0,0,4.821-.152L49.4,9.762a3.607,3.607,0,1,0,7.053,1.144l3.475-2.335a3.605,3.605,0,1,0-1.068-2.559,3.655,3.655,0,0,0,.019.367L55.644,8.55a3.6,3.6,0,0,0-4.8-.73L46.818,3.925c.009-.105.015-.211.015-.318a3.607,3.607,0,1,0-7.167.58L35.154,8.766a3.607,3.607,0,1,0-1.547,6.865Z" transform="translate(-27.595)" fill="#ffffff"/><path d="M37.273,176.452V153.607H32.464v22.845H27.654V157.214H22.845v19.238H18.035V150H13.226v26.452H8.417V159.619H3.607v16.833H0v2.4H40.88v-2.4Z" transform="translate(0 -137.976)" fill="#ffffff"/></g></svg>