<svg xmlns="http://www.w3.org/2000/svg" width="50.667" height="50.667" viewBox="0 0 50.667 50.667"><g transform="translate(0)"><path d="M183.469,173.731a20.838,20.838,0,0,0-1.875-29.151A23.828,23.828,0,0,1,158.7,174.9c-.3,0,1.529.011-5.689-.034a20.756,20.756,0,0,0,14.693,6.07l19.352-.1A1.486,1.486,0,0,0,188.1,178.3Z" transform="translate(-137.874 -130.273)" fill="#ffffff"/><path d="M20.831,41.661A20.828,20.828,0,1,0,5.071,34.454L.443,39.021a1.486,1.486,0,0,0,1.036,2.541Zm-8.856-28.2H29.786a1.484,1.484,0,0,1,0,2.969H11.974a1.484,1.484,0,0,1,0-2.969Zm0,5.937H29.786a1.484,1.484,0,0,1,0,2.969H11.974a1.484,1.484,0,0,1,0-2.969ZM10.49,26.818a1.484,1.484,0,0,1,1.484-1.484H29.786a1.484,1.484,0,0,1,0,2.969H11.974a1.484,1.484,0,0,1-1.484-1.484Z" transform="translate(0)" fill="#ffffff"/></g></svg>