<svg xmlns="http://www.w3.org/2000/svg" width="34.427" height="44.965" viewBox="0 0 34.427 44.965"><g transform="translate(-59.998)"><path d="M168.694,215.618a8.406,8.406,0,1,0,8.406,8.406A8.415,8.415,0,0,0,168.694,215.618Zm-1.358,13.136-4.551-4.5,1.852-1.873,2.768,2.737,5.38-4.926,1.779,1.943Z" transform="translate(-91.482 -196.682)" fill="#ffffff"/><path d="M166.074,3.7H160.65l-.3-.907a4.061,4.061,0,0,0-7.717,0l-.3.907h-5.424V8.087h19.16Z" transform="translate(-79.283)" fill="#ffffff"/><path d="M89.426,66.495v4.882H65V66.495H60V105.62H94.425V66.495ZM77.211,99.037A11.04,11.04,0,1,1,88.252,88,11.053,11.053,0,0,1,77.211,99.037Z" transform="translate(0 -60.655)" fill="#ffffff"/></g></svg>