<svg xmlns="http://www.w3.org/2000/svg" width="13.531" height="13.531" viewBox="0 0 13.531 13.531"><g transform="translate(0)"><path d="M169.173,241h-1.586a.4.4,0,0,0-.4.4v3.568H166.4a.4.4,0,0,0-.317.634l1.982,2.4a.4.4,0,0,0,.634,0l1.982-2.4a.4.4,0,0,0-.317-.634h-.793V241.4A.4.4,0,0,0,169.173,241Z" transform="translate(-161.615 -234.631)" fill="#ffffff"/><path d="M11.086,3.991a1.987,1.987,0,0,0-1.65-1.556A3.2,3.2,0,0,0,6.369,0,3.2,3.2,0,0,0,3.31,2.408c-.037,0-.075,0-.113,0a3.171,3.171,0,1,0,0,6.343H4.783V6.765A1.191,1.191,0,0,1,5.973,5.576H7.558A1.191,1.191,0,0,1,8.747,6.765V8.748h2.378a2.379,2.379,0,1,0-.04-4.757Z" transform="translate(0)" fill="#ffffff"/></g></svg>