<svg xmlns="http://www.w3.org/2000/svg" width="57.32" height="68" viewBox="0 0 57.32 68"><g transform="translate(-40.206)"><path d="M116.992,15.5h-5.476V11.094A1.992,1.992,0,0,0,109.524,9.1h-.142V3.984h.142a1.992,1.992,0,0,0,0-3.984h-12.8a1.992,1.992,0,0,0,0,3.984h.142V9.1h-.142a1.992,1.992,0,0,0-1.992,1.992V32.433a1.992,1.992,0,0,0,1.992,1.992h12.8a1.992,1.992,0,0,0,1.992-1.992V28.023h5.476c12.936.513,12.91,18.972,0,19.488H90.319A1.992,1.992,0,0,0,88.327,49.5V60.031h28.665a22.289,22.289,0,0,0,22.264-22.264h0A22.288,22.288,0,0,0,116.992,15.5Zm-7.469,12.52a6.26,6.26,0,1,1,6.26-6.26A6.267,6.267,0,0,1,109.524,28.023Z" transform="translate(-41.73)" fill="#ffffff"/><path d="M163.121,293.184a1.992,1.992,0,0,0,1.992-1.992V289.2h-12.52v1.992a1.992,1.992,0,0,0,1.992,1.992Z" transform="translate(-97.461 -250.791)" fill="#ffffff"/><path d="M80.6,482H42.188a1.992,1.992,0,0,0,0,3.984H80.6A1.992,1.992,0,0,0,80.6,482Z" transform="translate(0 -417.984)" fill="#ffffff"/><path d="M233.069,146.733a2.276,2.276,0,1,0,2.276,2.275A2.278,2.278,0,0,0,233.069,146.733Z" transform="translate(-165.275 -127.245)" fill="#ffffff"/></g></svg>