<svg xmlns="http://www.w3.org/2000/svg" width="16.953" height="24.582" viewBox="0 0 16.953 24.582"><path d="M16.953,23.311H0V0H13.139l3.814,3.815Zm0,0" fill="#e3e4d8"/><path d="M273.656,0V3.815h3.814Zm0,0" transform="translate(-260.517)" fill="#d0cebd"/><path d="M0,353.1H16.953v7.629H0Zm0,0" transform="translate(0 -336.148)" fill="#82c288"/><path d="M144.209,468.711h-2.543a.424.424,0,1,1,0-.848h2.543a.424.424,0,1,1,0,.848Zm0,0" transform="translate(-134.46 -445.4)" fill="#fff"/><path d="M141.666,384.672a.424.424,0,0,1-.424-.424V380.01a.424.424,0,0,1,.848,0v4.238A.424.424,0,0,1,141.666,384.672Zm0,0" transform="translate(-134.46 -361.361)" fill="#fff"/><g transform="translate(2.119 5.51)"><path d="M47.951,117.3H44.561a.424.424,0,0,1-.424-.424v-1.7a.424.424,0,0,1,.424-.424h3.391a.424.424,0,0,1,.424.424v1.7A.424.424,0,0,1,47.951,117.3Zm-2.967-.848h2.543v-.848H44.984Zm0,0" transform="translate(-44.137 -114.758)" fill="#a09893"/><path d="M47.951,152.613H44.561a.424.424,0,0,1-.424-.424v-1.7a.424.424,0,0,1,.424-.424h3.391a.424.424,0,0,1,.424.424v1.7A.424.424,0,0,1,47.951,152.613Zm-2.967-.848h2.543v-.848H44.984Zm0,0" transform="translate(-44.137 -148.375)" fill="#a09893"/><path d="M123.658,152.613h-8.477a.424.424,0,0,1-.424-.424v-1.7a.424.424,0,0,1,.424-.424h8.477a.424.424,0,0,1,.424.424v1.7A.424.424,0,0,1,123.658,152.613Zm-8.053-.848h7.629v-.848h-7.629Zm0,0" transform="translate(-111.367 -148.375)" fill="#a09893"/><path d="M47.951,187.922H44.561a.424.424,0,0,1-.424-.424v-1.7a.424.424,0,0,1,.424-.424h3.391a.424.424,0,0,1,.424.424v1.7A.424.424,0,0,1,47.951,187.922Zm-2.967-.848h2.543v-.848H44.984Zm0,0" transform="translate(-44.137 -181.988)" fill="#a09893"/><path d="M123.658,187.922h-8.477a.424.424,0,0,1-.424-.424v-1.7a.424.424,0,0,1,.424-.424h8.477a.424.424,0,0,1,.424.424v1.7A.424.424,0,0,1,123.658,187.922Zm-8.053-.848h7.629v-.848h-7.629Zm0,0" transform="translate(-111.367 -181.988)" fill="#ffffff"/><path d="M47.951,223.234H44.561a.424.424,0,0,1-.424-.424v-1.7a.424.424,0,0,1,.424-.424h3.391a.424.424,0,0,1,.424.424v1.7A.424.424,0,0,1,47.951,223.234Zm-2.967-.848h2.543v-.848H44.984Zm0,0" transform="translate(-44.137 -215.605)" fill="#ffffff"/><path d="M123.658,223.234h-8.477a.424.424,0,0,1-.424-.424v-1.7a.424.424,0,0,1,.424-.424h8.477a.424.424,0,0,1,.424.424v1.7A.424.424,0,0,1,123.658,223.234Zm-8.053-.848h7.629v-.848h-7.629Zm0,0" transform="translate(-111.367 -215.605)" fill="#ffffff"/><path d="M47.951,258.543H44.561a.424.424,0,0,1-.424-.424v-1.7a.424.424,0,0,1,.424-.424h3.391a.424.424,0,0,1,.424.424v1.7A.424.424,0,0,1,47.951,258.543Zm-2.967-.848h2.543v-.848H44.984Zm0,0" transform="translate(-44.137 -249.219)" fill="#ffffff"/><path d="M123.658,258.543h-8.477a.424.424,0,0,1-.424-.424v-1.7a.424.424,0,0,1,.424-.424h8.477a.424.424,0,0,1,.424.424v1.7A.424.424,0,0,1,123.658,258.543Zm-8.053-.848h7.629v-.848h-7.629Zm0,0" transform="translate(-111.367 -249.219)" fill="#a09893"/></g><path d="M44.564,384.666a.418.418,0,0,1-.217-.061.424.424,0,0,1-.146-.581l2.543-4.238a.424.424,0,1,1,.727.436l-2.543,4.238A.424.424,0,0,1,44.564,384.666Zm0,0" transform="translate(-42.021 -361.355)" fill="#fff"/><path d="M47.108,384.67a.423.423,0,0,1-.364-.206L44.2,380.227a.424.424,0,0,1,.727-.436l2.543,4.238a.423.423,0,0,1-.363.642Zm0,0" transform="translate(-42.021 -361.36)" fill="#fff"/><path d="M240.251,384.672h-1.483a.424.424,0,1,1,0-.848h1.483a.636.636,0,0,0,0-1.272h-.424a1.483,1.483,0,1,1,0-2.967h1.483a.424.424,0,1,1,0,.848h-1.483a.636.636,0,1,0,0,1.271h.424a1.483,1.483,0,0,1,0,2.967Zm0,0" transform="translate(-226.9 -361.361)" fill="#fff"/></svg>