<svg xmlns="http://www.w3.org/2000/svg" width="12.602" height="12.602" viewBox="0 0 12.602 12.602"><g transform="translate(15.602 -3) rotate(90)"><path d="M15.6,9.084V14.3a1.3,1.3,0,0,1-1.3,1.3H4.3A1.3,1.3,0,0,1,3,14.3V4.3A1.3,1.3,0,0,1,4.3,3H9.518a.652.652,0,0,1,0,1.3H4.738a.436.436,0,0,0-.435.435v9.126a.436.436,0,0,0,.435.435h9.126a.436.436,0,0,0,.435-.435V9.084a.652.652,0,0,1,1.3,0Z" fill="#ffffff"/><path d="M27.1,3.435V6.476a.652.652,0,0,1-1.3,0V5.225L18.8,12.219a.653.653,0,1,1-.923-.923L24.875,4.3H23.624a.652.652,0,1,1,0-1.3h3.042A.436.436,0,0,1,27.1,3.435Z" transform="translate(-11.498)" fill="#ffffff"/></g></svg>