<svg xmlns="http://www.w3.org/2000/svg" width="53.733" height="58.039" viewBox="0 0 53.733 58.039"><g transform="translate(-18.993 -0.001)"><path d="M65.178,12.5A26.713,26.713,0,0,0,49.692,4.58L51.368,2.9a1.7,1.7,0,1,0-2.4-2.4L44.657,4.805a1.7,1.7,0,0,0,0,2.4l4.306,4.306a1.7,1.7,0,0,0,2.4-2.4L50.4,8.148a23.449,23.449,0,1,1-12.437.919,1.7,1.7,0,1,0-1.144-3.2A26.874,26.874,0,1,0,65.178,12.5Z" fill="#ffffff"/><path d="M101.884,138.347a17.47,17.47,0,1,0,17.47-17.47A17.49,17.49,0,0,0,101.884,138.347Zm18.514,1.513a17.028,17.028,0,0,1-4.895-2.354,4.547,4.547,0,0,1-1.513-4.476,5.085,5.085,0,0,1,3.49-3.984l.074-.021v-.685a1.7,1.7,0,1,1,3.4,0v.576a6.492,6.492,0,0,1,2.351,1.071,1.7,1.7,0,0,1-2.036,2.724,3.1,3.1,0,0,0-2.808-.41,1.721,1.721,0,0,0-1.129,1.358,1.237,1.237,0,0,0,.269,1.171,15.509,15.509,0,0,0,3.929,1.824,5.38,5.38,0,0,1,3.655,6.088,6.116,6.116,0,0,1-1.884,3.474,5.844,5.844,0,0,1-2.347,1.323v.814a1.7,1.7,0,1,1-3.4,0v-.647a7.253,7.253,0,0,1-3.345-1.312,1.7,1.7,0,0,1,1.862-2.846,4.371,4.371,0,0,0,3.172.83,2.608,2.608,0,0,0,2.588-2.2,1.977,1.977,0,0,0-1.434-2.318Z" transform="translate(-73.495 -107.174)" fill="#ffffff"/></g></svg>