<svg xmlns="http://www.w3.org/2000/svg" width="27.53" height="30.5" viewBox="0 0 27.53 30.5"><g transform="translate(-24.927)"><path d="M78.338,104.394c.479.694.336.116.336,13.939a1.506,1.506,0,0,0,2.406,1.205c4.251-3.2,5.1-3.482,5.1-4.981,0-10.074-.117-9.507.336-10.163l6.9-9.4H71.436Z" transform="translate(-43.738 -89.34)" fill="#ffffff"/><path d="M52.287.766A1.421,1.421,0,0,0,51.024,0H26.353a1.425,1.425,0,0,0-1.167,2.24c.005.009-.075-.1,1.2,1.632H50.993C52.078,2.4,52.8,1.757,52.287.766Z" fill="#ffffff"/></g></svg>