<svg xmlns="http://www.w3.org/2000/svg" width="15.414" height="15.412" viewBox="0 0 15.414 15.412"><g transform="translate(0 15.412) rotate(-90)"><g transform="translate(15.412 0) rotate(90)"><g transform="translate(0)"><path d="M15.035,6.791,8.623.379A1.3,1.3,0,1,0,6.792,2.211l5.5,5.5-5.5,5.5a1.3,1.3,0,0,0,1.832,1.832l6.412-6.412A1.294,1.294,0,0,0,15.035,6.791ZM7.325,6.4,2.235,1.038a1.263,1.263,0,0,0-1.851,0,1.432,1.432,0,0,0,0,1.951l4.165,4.39L.384,11.768a1.432,1.432,0,0,0,0,1.951,1.263,1.263,0,0,0,1.851,0l5.09-5.365A1.432,1.432,0,0,0,7.325,6.4Z" fill="#ffffff"/></g></g></g></svg>