<svg xmlns="http://www.w3.org/2000/svg" width="20.91" height="20.91" viewBox="0 0 20.91 20.91"><circle cx="1.021" cy="1.021" r="1.021" transform="translate(9.434 14.437)" fill="#ffffff"/><path d="M10.455,0A10.455,10.455,0,1,0,20.91,10.455,10.449,10.449,0,0,0,10.455,0Zm0,19.276a8.821,8.821,0,1,1,8.821-8.821A8.816,8.816,0,0,1,10.455,19.276Z" fill="#ffffff"/><path d="M179.267,128.5A3.271,3.271,0,0,0,176,131.767a.817.817,0,0,0,1.634,0,1.634,1.634,0,1,1,1.634,1.634.817.817,0,0,0-.817.817v2.042a.817.817,0,0,0,1.634,0v-1.329a3.267,3.267,0,0,0-.817-6.431Z" transform="translate(-168.812 -123.252)" fill="#ffffff"/></svg>