<svg xmlns="http://www.w3.org/2000/svg" width="55" height="55.078" viewBox="0 0 55 55.078"><path d="M12.971,7.933A1.722,1.722,0,0,1,11.25,6.212V1.721a1.721,1.721,0,1,1,3.442,0V6.212A1.722,1.722,0,0,1,12.971,7.933Z" transform="translate(14.529)" fill="#ffffff"/><path d="M19.542,9.914a1.722,1.722,0,0,1-1.216-2.94L21.5,3.8a1.722,1.722,0,0,1,2.435,2.435L20.76,9.41A1.726,1.726,0,0,1,19.542,9.914Z" transform="translate(22.999 4.266)" fill="#ffffff"/><path d="M26.755,14.692H22.264a1.721,1.721,0,1,1,0-3.442h4.491a1.721,1.721,0,1,1,0,3.442Z" transform="translate(26.524 14.568)" fill="#ffffff"/><path d="M22.718,24.44a1.708,1.708,0,0,1-1.216-.5l-3.176-3.176a1.722,1.722,0,1,1,2.435-2.435L23.937,21.5a1.722,1.722,0,0,1-1.219,2.94Z" transform="translate(22.999 23.075)" fill="#ffffff"/><path d="M5.016,24.44A1.722,1.722,0,0,1,3.8,21.5l3.176-3.176a1.722,1.722,0,0,1,2.435,2.435L6.234,23.936A1.717,1.717,0,0,1,5.016,24.44Z" transform="translate(4.267 23.075)" fill="#ffffff"/><path d="M6.212,14.692H1.721a1.721,1.721,0,1,1,0-3.442H6.212a1.721,1.721,0,0,1,0,3.442Z" transform="translate(0 14.568)" fill="#ffffff"/><path d="M8.192,9.914a1.708,1.708,0,0,1-1.216-.5L3.8,6.233A1.722,1.722,0,0,1,6.234,3.8L9.411,6.975a1.722,1.722,0,0,1-1.219,2.94Z" transform="translate(4.267 4.266)" fill="#ffffff"/><path d="M22.769,21v2.869a4.035,4.035,0,0,1-4.016,4.016H13.016C11.088,27.885,9,26.416,9,23.2V21Z" transform="translate(11.615 27.193)" fill="#ffffff"/><path d="M31.123,8.578A16.051,16.051,0,1,0,11.389,33.891,6.932,6.932,0,0,1,14,38.274V38.3a.389.389,0,0,1,.16-.023H27.9a.206.206,0,0,1,.114.023v-.023a7.657,7.657,0,0,1,2.93-4.59,16.1,16.1,0,0,0,.183-25.106ZM29.612,22.21A1.732,1.732,0,0,1,27.9,20.489a6.3,6.3,0,0,0-6.3-6.311,1.721,1.721,0,0,1,0-3.442,9.763,9.763,0,0,1,9.73,9.753A1.732,1.732,0,0,1,29.612,22.21Z" transform="translate(6.473 6.476)" fill="#ffffff"/><path d="M8.93,19.5h.161a.391.391,0,0,0-.161.023Z" transform="translate(11.534 25.251)" fill="#ffffff"/><path d="M15.115,19.5v.023A.207.207,0,0,0,15,19.5Z" transform="translate(19.375 25.251)" fill="#ffffff"/></svg>