<svg xmlns="http://www.w3.org/2000/svg" width="18.97" height="18.971" viewBox="0 0 18.97 18.971"><path d="M306.524,152.2a.8.8,0,0,0-.172-.258l-2.371-2.371a.79.79,0,0,0-1.118,1.118l1.022,1.022H299.47a.79.79,0,0,0,0,1.581h4.415l-1.022,1.022a.79.79,0,1,0,1.118,1.118l2.371-2.371a.793.793,0,0,0,.172-.862Z" transform="translate(-287.614 -143.806)" fill="#ffffff"/><path d="M13.452,11.066a.79.79,0,0,0-.79.79v3.952H9.5V3.162A.791.791,0,0,0,8.936,2.4L6.191,1.581h6.471V5.533a.79.79,0,0,0,1.581,0V.79a.79.79,0,0,0-.79-.79H.8A.7.7,0,0,0,.723.015.781.781,0,0,0,.388.132C.371.143.349.144.333.156S.324.17.317.175a.783.783,0,0,0-.21.25A.646.646,0,0,0,.085.491.75.75,0,0,0,.023.676a.492.492,0,0,0,0,.069C.024.76.014.775.014.79V16.6a.79.79,0,0,0,.636.775l7.9,1.581a.736.736,0,0,0,.155.016.791.791,0,0,0,.79-.79v-.79h3.952a.79.79,0,0,0,.79-.79V11.857A.79.79,0,0,0,13.452,11.066Z" transform="translate(-0.014)" fill="#ffffff"/></svg>