<svg xmlns="http://www.w3.org/2000/svg" width="19.735" height="14.781" viewBox="0 0 19.735 14.781"><g transform="translate(0 -64.267)"><path d="M17.919,64.267H1.816a1.817,1.817,0,0,0,0,3.634h16.1a1.817,1.817,0,0,0,0-3.634Z" fill="#ffffff"/><path d="M17.919,208.867H1.816a1.817,1.817,0,0,0,0,3.634h16.1a1.817,1.817,0,0,0,0-3.634Z" transform="translate(0 -139.026)" fill="#ffffff"/><path d="M17.919,353.467H1.816a1.817,1.817,0,0,0,0,3.634h16.1a1.817,1.817,0,0,0,0-3.634Z" transform="translate(0 -278.053)" fill="#ffffff"/></g></svg>