<svg xmlns="http://www.w3.org/2000/svg" width="58.589" height="54.845" viewBox="0 0 58.589 54.845"><g transform="translate(0 -13.385)"><g transform="translate(0 13.385)"><path d="M26.385,44.252a14.885,14.885,0,0,0,3.184-2.675l3.349,1.934,3.049-5.282L32.625,36.3a14.706,14.706,0,0,0,.722-4.1l3.8-.67-1.059-6.006-3.8.67a14.784,14.784,0,0,0-2.085-3.6l2.485-2.961-4.672-3.92-2.483,2.959a14.679,14.679,0,0,0-3.91-1.427V13.385h-6.1v3.858a14.681,14.681,0,0,0-3.91,1.427L9.132,15.712,4.46,19.632l2.485,2.961a14.791,14.791,0,0,0-2.085,3.6l-3.8-.67L0,31.529l3.8.67a14.71,14.71,0,0,0,.722,4.1l-3.342,1.93L4.23,43.511l3.349-1.933a14.885,14.885,0,0,0,3.184,2.675L9.442,47.884l5.731,2.085,1.32-3.627a14.784,14.784,0,0,0,4.163,0l1.32,3.627,5.731-2.086ZM18.574,39.5a7.788,7.788,0,1,1,7.788-7.788A7.8,7.8,0,0,1,18.574,39.5Z" transform="translate(0 -13.385)" fill="#ffffff"/><path d="M222.341,222.671l-2.629.85a10.586,10.586,0,0,0-1.834-2.347l1.469-2.345-3.7-2.318-1.468,2.343a10.489,10.489,0,0,0-2.913-.625l-.381-2.736-4.324.6.381,2.736a10.506,10.506,0,0,0-2.631,1.4l-2.052-1.852-2.925,3.241,2.054,1.855a10.584,10.584,0,0,0-1.122,2.759l-2.762-.1-.158,4.362,2.761.1a10.529,10.529,0,0,0,.917,2.835l-2.179,1.7,2.683,3.443,2.183-1.7a10.682,10.682,0,0,0,2.522,1.582l-.579,2.706,4.269.912.578-2.7a10.618,10.618,0,0,0,2.951-.411l1.295,2.441,3.857-2.045-1.3-2.444A10.673,10.673,0,0,0,219.3,234.7l2.565,1.04,1.64-4.046-2.56-1.038a10.573,10.573,0,0,0,.107-2.978l2.629-.851ZM211.3,234.308a5.575,5.575,0,1,1,4.752-6.291A5.582,5.582,0,0,1,211.3,234.308Z" transform="translate(-169.744 -187.225)" fill="#ffffff"/><path d="M291.029,81.666l.1-3.445-2.18-.065a8.358,8.358,0,0,0-.739-2.234l1.712-1.353-2.136-2.7-1.712,1.352a8.351,8.351,0,0,0-2-1.233l.443-2.139-3.374-.7-.443,2.137a8.275,8.275,0,0,0-2.328.337l-1.034-1.92L274.3,71.336l1.034,1.92a8.306,8.306,0,0,0-1.563,1.758l-2.028-.807-1.274,3.2,2.029.808a8.349,8.349,0,0,0-.072,2.35l-2.071.685,1.081,3.272,2.071-.685a8.312,8.312,0,0,0,1.458,1.846l-1.146,1.856,2.932,1.811,1.148-1.859a8.425,8.425,0,0,0,2.3.478l.315,2.161,3.41-.5-.314-2.159a8.369,8.369,0,0,0,2.071-1.115l1.629,1.451,2.292-2.573-1.63-1.452a8.438,8.438,0,0,0,.868-2.185Zm-8.212,1.846A4.4,4.4,0,1,1,284.6,77.55,4.406,4.406,0,0,1,282.817,83.511Z" transform="translate(-232.542 -61.347)" fill="#ffffff"/></g></g></svg>