<svg xmlns="http://www.w3.org/2000/svg" width="49.347" height="56.146" viewBox="0 0 49.347 56.146"><g transform="translate(-31)"><g transform="translate(37.58 23.029)"><g transform="translate(0)"><path d="M95.935,210A4.94,4.94,0,0,0,91,214.935v13.379a4.935,4.935,0,1,0,9.869,0V214.935A4.94,4.94,0,0,0,95.935,210Z" transform="translate(-91 -210)" fill="#ffffff"/></g></g><g transform="translate(31 26.578)"><g transform="translate(0)"><path d="M34.29,243.751a8.161,8.161,0,0,1,.14-1.385A4.925,4.925,0,0,0,31,247.041v6.8a4.925,4.925,0,0,0,3.43,4.675,8.161,8.161,0,0,1-.14-1.385Z" transform="translate(-31 -242.366)" fill="#ffffff"/></g></g><g transform="translate(50.739 23.029)"><g transform="translate(0)"><path d="M229.094,210a4.94,4.94,0,0,0-4.935,4.935v13.379a4.94,4.94,0,0,0,4.935,4.935,4.868,4.868,0,0,0,1.414-.231,4.925,4.925,0,0,1-4.7,3.521h-5.238a4.935,4.935,0,1,0,0,3.29H225.8a8.234,8.234,0,0,0,8.225-8.225V214.935A4.94,4.94,0,0,0,229.094,210Z" transform="translate(-211 -210)" fill="#ffffff"/></g></g><g transform="translate(76.918 26.578)"><path d="M449.722,242.366a8.163,8.163,0,0,1,.14,1.385V257.13a8.163,8.163,0,0,1-.14,1.385,4.925,4.925,0,0,0,3.43-4.675v-6.8A4.925,4.925,0,0,0,449.722,242.366Z" transform="translate(-449.722 -242.366)" fill="#ffffff"/></g><g transform="translate(31)"><g transform="translate(0)"><path d="M55.674,0A24.7,24.7,0,0,0,31,24.674v.042a8.145,8.145,0,0,1,3.365-1.528,21.359,21.359,0,0,1,42.617,0,8.148,8.148,0,0,1,3.365,1.528v-.042A24.7,24.7,0,0,0,55.674,0Z" transform="translate(-31)" fill="#ffffff"/></g></g></g></svg>