<svg xmlns="http://www.w3.org/2000/svg" width="78" height="50.273" viewBox="0 0 78 50.273"><g transform="translate(0 -91)"><path d="M98.379,191a8.379,8.379,0,1,0,8.379,8.379A8.388,8.388,0,0,0,98.379,191Zm2.285,8.379a2.285,2.285,0,0,1-.669,1.616l-2.155,2.154a2.285,2.285,0,0,1-3.232-3.232l1.485-1.485v-2.1a2.285,2.285,0,0,1,4.57,0Z" transform="translate(-76.289 -84.766)" fill="#ffffff"/><path d="M0,138.285V167.23a2.285,2.285,0,0,0,2.285,2.285h9.141v-9.424a12.912,12.912,0,0,1,0-14.669V136H2.285A2.285,2.285,0,0,0,0,138.285Z" transform="translate(0 -38.145)" fill="#ffffff"/><path d="M260.246,96.027A5.027,5.027,0,0,0,255.219,91H228.493a8.324,8.324,0,0,0-5.925,2.454l-.01.01-4.391,4.391H215v9.424a12.912,12.912,0,0,1,0,14.669v9.424h3.733l3.5,5.834a8.42,8.42,0,0,0,7.185,4.068h13.612a5.027,5.027,0,0,0,0-10.055h12.188a5.027,5.027,0,0,0,0-10.055,5.027,5.027,0,0,0,0-10.055,5.027,5.027,0,0,0,0-10.055A5.027,5.027,0,0,0,260.246,96.027Z" transform="translate(-182.246)" fill="#ffffff"/><path d="M117.188,124.383v-5.336A3.047,3.047,0,0,0,114.141,116h-6.094A3.047,3.047,0,0,0,105,119.047v5.336a12.918,12.918,0,0,1,12.188,0Z" transform="translate(-89.004 -21.191)" fill="#ffffff"/><path d="M105,320.973v5.336a3.047,3.047,0,0,0,3.047,3.047h6.094a3.047,3.047,0,0,0,3.047-3.047v-5.336a12.918,12.918,0,0,1-12.187,0Z" transform="translate(-89.004 -194.938)" fill="#ffffff"/></g></svg>