<svg xmlns="http://www.w3.org/2000/svg" width="53.878" height="47.358" viewBox="0 0 53.878 47.358"><g transform="translate(0 -30.978)"><g transform="translate(0 58.342)"><path d="M17.364,291.011H1.578A1.579,1.579,0,0,0,0,292.589v14.732A1.578,1.578,0,0,0,1.578,308.9H17.364a1.578,1.578,0,0,0,1.578-1.578V292.589A1.579,1.579,0,0,0,17.364,291.011ZM3.157,305.743V294.168H13.885L9.92,298.7l-.912-.912a1.578,1.578,0,1,0-2.232,2.232l2.1,2.1a1.579,1.579,0,0,0,1.116.462h.053a1.579,1.579,0,0,0,1.135-.538l4.6-5.257v8.953Z" transform="translate(0 -291.011)" fill="#ffffff"/></g><g transform="translate(22.099 56.236)"><path d="M240.209,293.1H217.9a1.578,1.578,0,0,1-1.313-.7l-6.314-9.472a1.579,1.579,0,0,1,0-1.751l6.314-9.472a1.578,1.578,0,0,1,1.313-.7h22.308a1.579,1.579,0,0,1,1.578,1.578v18.944A1.579,1.579,0,0,1,240.209,293.1Zm-21.463-3.157h19.884V274.158H218.746l-5.262,7.893Z" transform="translate(-210.009 -271.001)" fill="#ffffff"/></g><g transform="translate(34.728 62.55)"><path d="M341.274,334.165H331.6a1.578,1.578,0,1,1,0-3.157h9.679a1.578,1.578,0,0,1,0,3.157Z" transform="translate(-330.017 -331.008)" fill="#ffffff"/></g><g transform="translate(32.623 68.865)"><path d="M323.378,394.171H311.595a1.578,1.578,0,1,1,0-3.157h11.784a1.578,1.578,0,1,1,0,3.157Z" transform="translate(-310.016 -391.014)" fill="#ffffff"/></g><g transform="translate(22.099 30.978)"><path d="M240.209,53.079H217.9a1.578,1.578,0,0,1-1.313-.7L210.274,42.9a1.578,1.578,0,0,1,0-1.751l6.314-9.472a1.578,1.578,0,0,1,1.313-.7h22.308a1.579,1.579,0,0,1,1.578,1.578V51.5A1.579,1.579,0,0,1,240.209,53.079Zm-21.463-3.157h19.884V34.135H218.746l-5.262,7.893Z" transform="translate(-210.009 -30.978)" fill="#ffffff"/></g><g transform="translate(34.728 37.293)"><path d="M341.274,94.142H331.6a1.578,1.578,0,0,1,0-3.157h9.679a1.578,1.578,0,0,1,0,3.157Z" transform="translate(-330.017 -90.985)" fill="#ffffff"/></g><g transform="translate(32.623 43.607)"><path d="M323.378,154.148H311.595a1.578,1.578,0,0,1,0-3.157h11.784a1.578,1.578,0,1,1,0,3.157Z" transform="translate(-310.016 -150.991)" fill="#ffffff"/></g><g transform="translate(0 33.084)"><path d="M17.364,50.988H1.578A1.579,1.579,0,0,0,0,52.566V67.3a1.578,1.578,0,0,0,1.578,1.578H17.364A1.578,1.578,0,0,0,18.942,67.3V52.566A1.579,1.579,0,0,0,17.364,50.988ZM3.157,65.72V54.145H13.885L9.92,58.676l-.912-.912A1.578,1.578,0,0,0,6.776,60l2.1,2.1A1.579,1.579,0,0,0,10,62.563h.053a1.579,1.579,0,0,0,1.135-.538l4.6-5.257V65.72Z" transform="translate(0 -50.988)" fill="#ffffff"/></g></g></svg>