<svg xmlns="http://www.w3.org/2000/svg" width="13.41" height="13.313" viewBox="0 0 13.41 13.313"><g transform="translate(0 -1.688)"><g transform="translate(0 1.688)"><g transform="translate(0 0)"><path d="M253.443,423.171c-.111.028-.223.052-.335.073a.539.539,0,0,0,.2,1.06c.133-.025.268-.054.4-.087a.539.539,0,0,0-.261-1.046Z" transform="translate(-245.384 -411.006)" fill="#ffffff"/><path d="M412.616,137.272a.539.539,0,0,0,1.024-.339c-.043-.129-.09-.258-.14-.384a.539.539,0,1,0-1,.4C412.541,137.055,412.58,137.164,412.616,137.272Z" transform="translate(-400.57 -132.332)" fill="#ffffff"/><path d="M321.428,394c-.1.063-.193.124-.292.18a.539.539,0,1,0,.539.934c.118-.068.234-.14.348-.215a.539.539,0,0,0-.594-.9Z" transform="translate(-311.617 -382.605)" fill="#ffffff"/><path d="M428.712,207.829a.539.539,0,1,0-1.077.042c0,.114.006.229,0,.343a.539.539,0,1,0,1.078.024C428.719,208.1,428.717,207.965,428.712,207.829Z" transform="translate(-415.307 -201.384)" fill="#ffffff"/><path d="M377.854,344.177a.539.539,0,0,0-.755.108c-.068.091-.141.181-.214.268a.539.539,0,0,0,.061.76l.04.03a.539.539,0,0,0,.72-.091c.088-.1.174-.211.256-.32A.539.539,0,0,0,377.854,344.177Z" transform="translate(-365.895 -334.199)" fill="#ffffff"/><path d="M414.575,279.376a.539.539,0,0,0-.676.353c-.034.109-.072.218-.113.324a.539.539,0,0,0,1.007.384c.048-.127.093-.257.134-.386A.539.539,0,0,0,414.575,279.376Z" transform="translate(-401.824 -271.347)" fill="#ffffff"/><path d="M5.708,13.931a5.567,5.567,0,0,1-1.383-.439l-.015-.008c-.1-.049-.206-.1-.306-.155H4a5.751,5.751,0,0,1-.536-.335,5.626,5.626,0,0,1,.023-9.215l.019-.013a5.635,5.635,0,0,1,6.316-.051L9.4,4.322c-.117.169-.045.293.16.274l1.83-.164a.3.3,0,0,0,.273-.394l-.491-1.77c-.055-.2-.2-.222-.313-.053l-.422.61A6.658,6.658,0,0,0,5.56,1.788Q5.3,1.833,5.05,1.9h0L5.027,1.9a6.648,6.648,0,0,0-3.686,2.47c-.008.009-.016.018-.023.028-.031.041-.061.083-.091.125-.049.069-.1.14-.142.211-.006.009-.01.017-.015.026A6.646,6.646,0,0,0,.007,8.684s0,.009,0,.014c.006.135.017.272.031.407,0,.009,0,.017,0,.026.015.136.034.272.058.408a6.653,6.653,0,0,0,1.876,3.608l.007.007,0,0a6.793,6.793,0,0,0,.859.718,6.647,6.647,0,0,0,2.673,1.119.539.539,0,0,0,.19-1.061Z" transform="translate(0 -1.688)" fill="#ffffff"/><path d="M206.423,83.2a.436.436,0,0,0-.436.436V87.98l3.974,2.055a.436.436,0,0,0,.4-.775l-3.5-1.811V83.634A.436.436,0,0,0,206.423,83.2Z" transform="translate(-200.049 -80.848)" fill="#ffffff"/></g></g></g></svg>