<svg xmlns="http://www.w3.org/2000/svg" width="9.695" height="12.335" viewBox="0 0 9.695 12.335"><g transform="translate(-54.798)"><path d="M64.13,3.493A.361.361,0,0,0,64.466,3a2.292,2.292,0,0,0-2.123-1.433H61.9A1.919,1.919,0,0,0,60.031,0H59.26a1.919,1.919,0,0,0-1.869,1.566h-.444A2.292,2.292,0,0,0,54.824,3a.361.361,0,0,0,.336.494ZM59.26.723h.771a1.186,1.186,0,0,1,1.126.843H58.134A1.186,1.186,0,0,1,59.26.723Z" fill="#ffffff"/><path d="M90.537,182.112a1.088,1.088,0,0,0,1.081,1.007H96.44a1.088,1.088,0,0,0,1.081-1.007L98.028,175h-8Zm4.48-5.178a.361.361,0,0,1,.722.036l-.193,3.855a.361.361,0,0,1-.722-.036Zm-2.355-.343a.361.361,0,0,1,.379.343l.193,3.855a.361.361,0,0,1-.722.036l-.193-3.855A.361.361,0,0,1,92.662,176.591Z" transform="translate(-34.384 -170.784)" fill="#ffffff"/></g></svg>