<svg xmlns="http://www.w3.org/2000/svg" width="22.497" height="19.34" viewBox="0 0 22.497 19.34"><g transform="translate(0 -35.93)"><g transform="translate(6.522 43.197)"><path d="M153.175,201.322l-4.749,4.749,1.24,1.24,2.631-2.631v8.714h1.754V204.68l2.631,2.631,1.24-1.24Z" transform="translate(-148.426 -201.322)" fill="#ffffff"/></g><g transform="translate(0 35.93)"><path d="M18.284,42.839A7.105,7.105,0,0,0,4.22,41.619,5.351,5.351,0,0,0,5.35,52.2h.921V50.445H5.345a3.6,3.6,0,0,1-.287-7.18l.728-.058.075-.726a5.35,5.35,0,0,1,10.672.554v1.535H17.8a2.938,2.938,0,1,1,0,5.876H16.27V52.2H17.8a4.692,4.692,0,0,0,.48-9.36Z" transform="translate(0 -35.93)" fill="#ffffff"/></g></g></svg>