<svg xmlns="http://www.w3.org/2000/svg" width="67.967" height="57.655" viewBox="0 0 67.967 57.655"><g transform="translate(0 -38.84)"><g transform="translate(52.899 69.967)"><path d="M403.75,273.32h-5.256a13.673,13.673,0,0,1,.828,4.7v19.866a5.858,5.858,0,0,1-.338,1.962h8.69a5.894,5.894,0,0,0,5.887-5.887v-10.83A9.822,9.822,0,0,0,403.75,273.32Z" transform="translate(-398.494 -273.32)" fill="#ffffff"/></g><g transform="translate(0 69.967)"><path d="M14.239,278.021a13.672,13.672,0,0,1,.828-4.7H9.811A9.823,9.823,0,0,0,0,283.132v10.83a5.893,5.893,0,0,0,5.887,5.887h8.69a5.86,5.86,0,0,1-.338-1.962Z" transform="translate(0 -273.321)" fill="#ffffff"/></g><g transform="translate(18.164 64.855)"><path d="M158.657,234.815H146.64a9.823,9.823,0,0,0-9.811,9.811v19.866a1.962,1.962,0,0,0,1.962,1.962h27.715a1.962,1.962,0,0,0,1.962-1.962V244.626A9.823,9.823,0,0,0,158.657,234.815Z" transform="translate(-136.829 -234.815)" fill="#ffffff"/></g><g transform="translate(22.184 38.84)"><g transform="translate(0 0)"><path d="M178.913,38.84a11.8,11.8,0,1,0,11.8,11.8A11.813,11.813,0,0,0,178.913,38.84Z" transform="translate(-167.114 -38.84)" fill="#ffffff"/></g></g><g transform="translate(4.439 49.838)"><g transform="translate(0 0)"><path d="M42.267,121.689a8.82,8.82,0,1,0,8.824,8.824A8.834,8.834,0,0,0,42.267,121.689Z" transform="translate(-33.443 -121.689)" fill="#ffffff"/></g></g><g transform="translate(45.879 49.838)"><g transform="translate(0 0)"><path d="M354.431,121.689a8.824,8.824,0,1,0,8.824,8.824A8.834,8.834,0,0,0,354.431,121.689Z" transform="translate(-345.607 -121.689)" fill="#ffffff"/></g></g></g></svg>