<svg xmlns="http://www.w3.org/2000/svg" width="16.953" height="24.581" viewBox="0 0 16.953 24.581"><path d="M16.953,23.31H0V0H13.138l3.814,3.814Zm0,0" fill="#e3e4d8"/><path d="M273.656,0V3.814h3.814Zm0,0" transform="translate(-260.518)" fill="#d0cebd"/><path d="M0,353.1H16.953v7.629H0Zm0,0" transform="translate(0 -336.149)" fill="#2c81e4"/><path d="M241.31,384.672h-1.691a1.277,1.277,0,0,1-1.275-1.275v-2.535a1.277,1.277,0,0,1,1.275-1.275h1.691a.424.424,0,0,1,0,.848h-1.691a.428.428,0,0,0-.428.428V383.4a.428.428,0,0,0,.428.428h1.691a.424.424,0,1,1,0,.848Zm0,0" transform="translate(-226.901 -361.362)" fill="#fff"/><path d="M79.449,132.414h9.324v8.052H79.449Zm0,0" transform="translate(-75.635 -126.057)" fill="#2c81e4"/><g transform="translate(2.119 8.052)"><path d="M118.99,172.38a.424.424,0,0,1-.4-.29l-.869-2.608-.869,2.608a.424.424,0,0,1-.8,0l-1.272-3.814a.424.424,0,0,1,.8-.268l.869,2.609.869-2.608a.424.424,0,0,1,.8,0l.869,2.608.869-2.608a.424.424,0,0,1,.8.268l-1.272,3.814A.424.424,0,0,1,118.99,172.38Zm0,0" transform="translate(-111.362 -167.718)" fill="#fff"/><path d="M44.984,384.672h-.424a.424.424,0,0,1-.424-.424V380.01a.424.424,0,0,1,.424-.424h.424a2.543,2.543,0,1,1,0,5.086Zm0-.848h0Zm0-3.391v3.391a1.7,1.7,0,0,0,0-3.391Zm0,0" transform="translate(-44.137 -369.414)" fill="#fff"/><path d="M143.361,384.672h-.848a1.273,1.273,0,0,1-1.271-1.271v-2.543a1.273,1.273,0,0,1,1.271-1.272h.848a1.273,1.273,0,0,1,1.272,1.272V383.4A1.273,1.273,0,0,1,143.361,384.672Zm-.848-4.238a.424.424,0,0,0-.424.424V383.4a.424.424,0,0,0,.424.424h.848a.424.424,0,0,0,.424-.424v-2.543a.424.424,0,0,0-.424-.424Zm0,0" transform="translate(-136.58 -369.414)" fill="#fff"/></g></svg>