<svg xmlns="http://www.w3.org/2000/svg" width="16.398" height="16.398" viewBox="0 0 16.398 16.398"><g transform="translate(0 0)"><path d="M1.945,11.355a6.654,6.654,0,1,1,9.41-9.41,6.524,6.524,0,0,1,1,8.03.28.28,0,0,0,.039.333L15.789,13.7a1.55,1.55,0,0,1,.237,2.22l-.1.1a1.55,1.55,0,0,1-2.22-.237L10.316,12.4a.284.284,0,0,0-.341-.046A6.525,6.525,0,0,1,1.945,11.355Zm8.181-1.228a4.916,4.916,0,1,0-6.953,0A4.922,4.922,0,0,0,10.126,10.127Z" transform="translate(0.001 0)" fill="#ffffff"/><path d="M126.031,109.165a.53.53,0,0,0,.528.528h5.194a.53.53,0,0,0,.528-.528v-.876a.53.53,0,0,0-.528-.528h-5.194a.53.53,0,0,0-.528.528Z" transform="translate(-122.542 -102.069)" fill="#ffffff"/></g></svg>