<svg xmlns="http://www.w3.org/2000/svg" width="16.398" height="16.398" viewBox="0 0 16.398 16.398"><g transform="translate(0)"><g transform="translate(0 0)"><path d="M1.946,11.355a6.654,6.654,0,0,1,9.41-9.41,6.524,6.524,0,0,1,1,8.03.28.28,0,0,0,.039.333L15.79,13.7a1.55,1.55,0,0,1,.237,2.22l-.1.1a1.55,1.55,0,0,1-2.22-.237L10.317,12.4a.284.284,0,0,0-.341-.046A6.524,6.524,0,0,1,1.946,11.355Zm8.181-1.228a4.916,4.916,0,1,0-6.953,0A4.922,4.922,0,0,0,10.128,10.127Z" transform="translate(-0.001 0)" fill="#ffffff"/><path d="M126.561,69.041h1.489a.154.154,0,0,0,.142-.157V67.41a.53.53,0,0,1,.528-.528h.876a.53.53,0,0,1,.528.528v1.465a.163.163,0,0,0,.151.166h1.48a.53.53,0,0,1,.528.528v.876a.53.53,0,0,1-.528.528h-1.469a.161.161,0,0,0-.162.159V72.6a.53.53,0,0,1-.528.528h-.876a.53.53,0,0,1-.528-.528V71.123c0-.142-.162-.15-.162-.15h-1.469a.53.53,0,0,1-.528-.528V69.57A.53.53,0,0,1,126.561,69.041Z" transform="translate(-122.544 -63.349)" fill="#ffffff"/></g></g></svg>