<svg xmlns="http://www.w3.org/2000/svg" width="22.984" height="21.402" viewBox="0 0 22.984 21.402">
  <g id="Group_1" data-name="Group 1" transform="translate(0 0)">
    <path id="Path_1" data-name="Path 1" d="M22.6,26.718l-3.483-3.483V19.211a1.317,1.317,0,0,0-2.635,0V20.6l-2.594-2.594a3.466,3.466,0,0,0-4.791,0L.386,26.718A1.318,1.318,0,0,0,2.25,28.582l8.709-8.71a.778.778,0,0,1,1.066,0l8.71,8.711A1.318,1.318,0,1,0,22.6,26.718Z" transform="translate(-0.001 -17.047)" fill="#fff"/>
    <path id="Path_2" data-name="Path 2" d="M77.393,127.937a.647.647,0,0,0-.915,0L68.817,135.6a.648.648,0,0,0-.19.458v5.586A2.374,2.374,0,0,0,71,144.014h3.793V138.14h4.282v5.874h3.793a2.374,2.374,0,0,0,2.374-2.374v-5.586a.646.646,0,0,0-.19-.458Z" transform="translate(-65.443 -122.612)" fill="#fff"/>
  </g>
</svg>
