<svg xmlns="http://www.w3.org/2000/svg" width="12.136" height="12.136" viewBox="0 0 12.136 12.136">
  <g id="edit" transform="translate(0 -0.501)">
    <path id="Path_250" data-name="Path 250" d="M9.608,89.862a.506.506,0,0,0-.506.506v4.045a.506.506,0,0,1-.506.506H1.517a.506.506,0,0,1-.506-.506v-7.08a.506.506,0,0,1,.506-.506H5.562a.506.506,0,0,0,0-1.011H1.517A1.519,1.519,0,0,0,0,87.333v7.08A1.519,1.519,0,0,0,1.517,95.93H8.6a1.519,1.519,0,0,0,1.517-1.517V90.368A.505.505,0,0,0,9.608,89.862Zm0,0" transform="translate(0 -83.293)" fill="#fbfbfb"/>
    <path id="Path_251" data-name="Path 251" d="M182.24,72.263a.256.256,0,0,0-.069.129l-.357,1.788a.253.253,0,0,0,.248.3.241.241,0,0,0,.05-.005l1.788-.357a.252.252,0,0,0,.129-.069l4-4-1.788-1.787Zm0,0" transform="translate(-177.498 -66.155)" fill="#fbfbfb"/>
    <path id="Path_252" data-name="Path 252" d="M393.933.871a1.265,1.265,0,0,0-1.788,0l-.7.7,1.788,1.788.7-.7a1.264,1.264,0,0,0,0-1.787Zm0,0" transform="translate(-382.167)" fill="#fbfbfb"/>
  </g>
</svg>
