<svg id="Expense_Menu_Icon" data-name="Expense Menu Icon" xmlns="http://www.w3.org/2000/svg" width="64.397" height="69.557" viewBox="0 0 64.397 69.557">
  <path id="Path_56" data-name="Path 56" d="M74.343,14.983A32.015,32.015,0,0,0,55.784,5.489L57.793,3.48A2.038,2.038,0,0,0,54.911.6L49.75,5.759a2.038,2.038,0,0,0,0,2.882L54.911,13.8a2.038,2.038,0,0,0,2.882-2.882L56.639,9.765a28.1,28.1,0,1,1-14.905,1.1,2.038,2.038,0,1,0-1.37-3.838,32.207,32.207,0,1,0,33.98,7.955Z" transform="translate(-18.993 -0.001)" fill="#474747"/>
  <path id="Path_57" data-name="Path 57" d="M101.884,141.814a20.937,20.937,0,1,0,20.937-20.937A20.961,20.961,0,0,0,101.884,141.814Zm22.188,1.814a20.407,20.407,0,0,1-5.866-2.821,5.449,5.449,0,0,1-1.813-5.364,6.1,6.1,0,0,1,4.183-4.775l.089-.025v-.821a2.038,2.038,0,1,1,4.076,0v.691a7.781,7.781,0,0,1,2.817,1.284,2.038,2.038,0,0,1-2.44,3.264,3.717,3.717,0,0,0-3.366-.491A2.062,2.062,0,0,0,120.4,136.2a1.483,1.483,0,0,0,.323,1.4,18.587,18.587,0,0,0,4.709,2.186,6.447,6.447,0,0,1,4.38,7.3,7.33,7.33,0,0,1-2.257,4.163,7,7,0,0,1-2.812,1.585v.976a2.038,2.038,0,1,1-4.076,0v-.775a8.692,8.692,0,0,1-4.008-1.572,2.038,2.038,0,1,1,2.231-3.411,5.238,5.238,0,0,0,3.8.995,3.126,3.126,0,0,0,3.1-2.637,2.37,2.37,0,0,0-1.719-2.778Z" transform="translate(-90.623 -104.456)" fill="#474747"/>
</svg>
