<svg xmlns="http://www.w3.org/2000/svg" width="58.887" height="67" viewBox="0 0 58.887 67">
  <g id="headphones" transform="translate(0)">
    <g id="Group_138" data-name="Group 138" transform="translate(7.852 27.48)">
      <g id="Group_137" data-name="Group 137" transform="translate(0)">
        <path id="Path_377" data-name="Path 377" d="M96.889,210A5.9,5.9,0,0,0,91,215.889v15.965a5.889,5.889,0,1,0,11.777,0V215.889A5.9,5.9,0,0,0,96.889,210Z" transform="translate(-91 -210)" fill="#474747"/>
      </g>
    </g>
    <g id="Group_140" data-name="Group 140" transform="translate(0 31.716)">
      <g id="Group_139" data-name="Group 139">
        <path id="Path_378" data-name="Path 378" d="M34.926,244.019a9.739,9.739,0,0,1,.167-1.653A5.877,5.877,0,0,0,31,247.945v8.113a5.877,5.877,0,0,0,4.093,5.579,9.738,9.738,0,0,1-.167-1.653Z" transform="translate(-31 -242.366)" fill="#474747"/>
      </g>
    </g>
    <g id="Group_142" data-name="Group 142" transform="translate(23.555 27.48)">
      <g id="Group_141" data-name="Group 141" transform="translate(0)">
        <path id="Path_379" data-name="Path 379" d="M232.592,210a5.9,5.9,0,0,0-5.889,5.889v15.965a5.9,5.9,0,0,0,5.889,5.889,5.808,5.808,0,0,0,1.687-.276,5.877,5.877,0,0,1-5.613,4.2h-6.25a5.889,5.889,0,1,0,0,3.926h6.25a9.826,9.826,0,0,0,9.814-9.814V215.889A5.9,5.9,0,0,0,232.592,210Z" transform="translate(-211 -210)" fill="#474747"/>
      </g>
    </g>
    <g id="Group_144" data-name="Group 144" transform="translate(54.794 31.716)">
      <g id="Group_143" data-name="Group 143">
        <path id="Path_380" data-name="Path 380" d="M449.722,242.366a9.737,9.737,0,0,1,.167,1.653v15.965a9.737,9.737,0,0,1-.167,1.653,5.877,5.877,0,0,0,4.093-5.579v-8.113A5.877,5.877,0,0,0,449.722,242.366Z" transform="translate(-449.722 -242.366)" fill="#474747"/>
      </g>
    </g>
    <g id="Group_146" data-name="Group 146">
      <g id="Group_145" data-name="Group 145">
        <path id="Path_381" data-name="Path 381" d="M60.443,0A29.476,29.476,0,0,0,31,29.443v.05a9.72,9.72,0,0,1,4.016-1.823,25.487,25.487,0,0,1,50.855,0,9.723,9.723,0,0,1,4.016,1.823v-.05A29.476,29.476,0,0,0,60.443,0Z" transform="translate(-31)" fill="#474747"/>
      </g>
    </g>
  </g>
</svg>
