<svg id="lamp" xmlns="http://www.w3.org/2000/svg" width="28.793" height="28.793" viewBox="0 0 28.793 28.793">
  <path id="Path_337" data-name="Path 337" d="M12.15,4.147a.9.9,0,0,1-.9-.9V.9a.9.9,0,0,1,1.8,0V3.248A.9.9,0,0,1,12.15,4.147Z" transform="translate(2.247)" fill="#474747"/>
  <path id="Path_338" data-name="Path 338" d="M18.721,6.755a.9.9,0,0,1-.636-1.537l1.66-1.66a.9.9,0,1,1,1.273,1.273l-1.66,1.66A.9.9,0,0,1,18.721,6.755Z" transform="translate(3.559 0.658)" fill="#474747"/>
  <path id="Path_339" data-name="Path 339" d="M23.791,13.05H21.443a.9.9,0,0,1,0-1.8h2.348a.9.9,0,0,1,0,1.8Z" transform="translate(4.103 2.247)" fill="#474747"/>
  <path id="Path_340" data-name="Path 340" d="M20.381,21.281a.893.893,0,0,1-.636-.264l-1.66-1.66a.9.9,0,1,1,1.273-1.273l1.66,1.66a.9.9,0,0,1-.637,1.537Z" transform="translate(3.559 3.559)" fill="#474747"/>
  <path id="Path_341" data-name="Path 341" d="M4.195,21.281a.9.9,0,0,1-.636-1.537l1.66-1.66a.9.9,0,1,1,1.273,1.273l-1.66,1.66A.9.9,0,0,1,4.195,21.281Z" transform="translate(0.658 3.559)" fill="#474747"/>
  <path id="Path_342" data-name="Path 342" d="M3.248,13.05H.9a.9.9,0,0,1,0-1.8H3.248a.9.9,0,0,1,0,1.8Z" transform="translate(0 2.247)" fill="#474747"/>
  <path id="Path_343" data-name="Path 343" d="M5.855,6.755a.893.893,0,0,1-.636-.264l-1.66-1.66A.9.9,0,0,1,4.832,3.558l1.66,1.66a.9.9,0,0,1-.637,1.537Z" transform="translate(0.658 0.658)" fill="#474747"/>
  <path id="Path_344" data-name="Path 344" d="M16.2,21v1.5a2.11,2.11,0,0,1-2.1,2.1h-3A2.187,2.187,0,0,1,9,22.152V21Z" transform="translate(1.797 4.194)" fill="#474747"/>
  <path id="Path_345" data-name="Path 345" d="M18.689,6.871A8.4,8.4,0,1,0,8.347,20.1,3.623,3.623,0,0,1,9.715,22.4v.012A.2.2,0,0,1,9.8,22.4H17a.108.108,0,0,1,.06.012V22.4A4,4,0,0,1,18.593,20a8.4,8.4,0,0,0,.1-13.125ZM17.9,14a.906.906,0,0,1-.9-.9,3.3,3.3,0,0,0-3.3-3.3.9.9,0,0,1,0-1.8,5.11,5.11,0,0,1,5.1,5.1A.906.906,0,0,1,17.9,14Z" transform="translate(0.998 0.999)" fill="#474747"/>
  <path id="Path_346" data-name="Path 346" d="M8.93,19.5h.084a.2.2,0,0,0-.084.012Z" transform="translate(1.783 3.894)" fill="#474747"/>
  <path id="Path_347" data-name="Path 347" d="M15.06,19.5v.012A.108.108,0,0,0,15,19.5Z" transform="translate(2.996 3.894)" fill="#474747"/>
</svg>
