<svg id="Capa_1" enable-background="new 0 0 512 512" height="512" viewBox="0 0 512 512" width="512" xmlns="http://www.w3.org/2000/svg"><g><path d="m423.056 102.758-21.212-21.213-62.546 62.546-22.647-22.646-21.213 21.213 43.86 43.859z"/><path d="m357.854 254.705c34.005 0 65.919-13.257 89.862-37.329 23.895-24.023 37.054-55.995 37.054-90.023s-13.16-66-37.054-90.023c-23.943-24.073-55.857-37.33-89.862-37.33-46.481 0-87.219 25.036-109.457 62.326-31.777-19.264-67.623-30.027-105.044-31.462v-30.864h-116.123v170.386h43.062v28.586h30v-28.586h43.062v-47.115c65.665 5.011 117.562 60.045 117.562 126.971v62.195c-16.783 10.87-29.01 28.196-33.106 48.448h-194.725v30h133.487v30.557h-132.643v90.558h320.682v-82.086c14.06-13.729 22.812-32.871 22.812-54.029s-8.752-40.3-22.812-54.029v-67.193c1.078.028 2.159.042 3.243.042zm0-224.705c25.961 0 50.321 10.116 68.592 28.485 18.265 18.364 28.324 42.821 28.324 68.867s-10.059 50.503-28.324 68.867c-18.271 18.369-42.63 28.485-68.592 28.485-53.68 0-97.353-43.672-97.353-97.353s43.673-97.351 97.353-97.351zm-244.501 0v30.899h-56.123v-30.899zm-56.123 110.386v-49.487h56.123v49.487zm86.123-47.174v-32.316c33.16 1.473 64.853 11.427 92.743 29.1-3.544 11.527-5.488 23.745-5.582 36.397-24.333-19.088-54.409-31.162-87.161-33.181zm158.513 237.116c25.121 0 45.558 20.437 45.558 45.558 0 25.12-20.437 45.557-45.558 45.557-25.12 0-45.557-20.437-45.557-45.557 0-25.121 20.437-45.558 45.557-45.558zm-237.937 121.114h102.643v30.558h-102.643zm260.682 30.558h-128.039v-91.115h31.237c6.977 34.501 37.529 60.557 74.057 60.557 7.924 0 15.563-1.233 22.745-3.505zm0-178.167c-7.182-2.272-14.822-3.505-22.745-3.505-3.72 0-7.374.281-10.951.803v-50.889c0-5.076-.251-10.093-.723-15.047 10.538 6.636 22.111 11.768 34.419 15.1z"/></g></svg>