<svg id="Start_Discussion_Icon" data-name="Start Discussion Icon" xmlns="http://www.w3.org/2000/svg" width="11.323" height="11.531" viewBox="0 0 11.323 11.531">
  <path id="Path_61" data-name="Path 61" d="M9.054,0H9.035A5.657,5.657,0,0,0,4.6,9.182L3.774,11.1a.307.307,0,0,0,.161.4.314.314,0,0,0,.176.022L7.135,11a5.451,5.451,0,0,0,1.885.327A5.661,5.661,0,0,0,9.054,0ZM7.114,4.529H8.782a.309.309,0,1,1,0,.618H7.114a.309.309,0,0,1,0-.618Zm3.831,2.163H7.114a.309.309,0,0,1,0-.618h3.831a.309.309,0,0,1,0,.618Z" transform="translate(-3.366)" fill="#fbfbfb"/>
</svg>
