<svg xmlns="http://www.w3.org/2000/svg" width="28.65" height="24.304" viewBox="0 0 28.65 24.304">
  <g id="Team_Menu_Icon" data-name="Team Menu Icon" transform="translate(0 -38.84)">
    <g id="Group_4" data-name="Group 4" transform="translate(22.299 51.961)">
      <g id="Group_3" data-name="Group 3">
        <path id="Path_23" data-name="Path 23" d="M400.71,273.32h-2.216a5.763,5.763,0,0,1,.349,1.981v8.374a2.47,2.47,0,0,1-.142.827h3.663a2.484,2.484,0,0,0,2.482-2.482v-4.565A4.14,4.14,0,0,0,400.71,273.32Z" transform="translate(-398.494 -273.32)" fill="#474747"/>
      </g>
    </g>
    <g id="Group_6" data-name="Group 6" transform="translate(0 51.961)">
      <g id="Group_5" data-name="Group 5">
        <path id="Path_24" data-name="Path 24" d="M6,275.3a5.763,5.763,0,0,1,.349-1.981H4.136A4.141,4.141,0,0,0,0,277.457v4.565A2.484,2.484,0,0,0,2.482,284.5H6.145A2.47,2.47,0,0,1,6,283.676Z" transform="translate(0 -273.321)" fill="#474747"/>
      </g>
    </g>
    <g id="Group_8" data-name="Group 8" transform="translate(7.657 49.806)">
      <g id="Group_7" data-name="Group 7">
        <path id="Path_25" data-name="Path 25" d="M146.03,234.815h-5.065a4.141,4.141,0,0,0-4.136,4.136v8.374a.827.827,0,0,0,.827.827h11.683a.827.827,0,0,0,.827-.827v-8.374A4.141,4.141,0,0,0,146.03,234.815Z" transform="translate(-136.829 -234.815)" fill="#474747"/>
      </g>
    </g>
    <g id="Group_10" data-name="Group 10" transform="translate(9.351 38.84)">
      <g id="Group_9" data-name="Group 9" transform="translate(0 0)">
        <path id="Path_26" data-name="Path 26" d="M172.088,38.84a4.973,4.973,0,1,0,4.974,4.974A4.98,4.98,0,0,0,172.088,38.84Z" transform="translate(-167.114 -38.84)" fill="#474747"/>
      </g>
    </g>
    <g id="Group_12" data-name="Group 12" transform="translate(1.871 43.476)">
      <g id="Group_11" data-name="Group 11" transform="translate(0 0)">
        <path id="Path_27" data-name="Path 27" d="M37.163,121.689a3.718,3.718,0,1,0,3.72,3.72A3.724,3.724,0,0,0,37.163,121.689Z" transform="translate(-33.443 -121.689)" fill="#474747"/>
      </g>
    </g>
    <g id="Group_14" data-name="Group 14" transform="translate(19.339 43.476)">
      <g id="Group_13" data-name="Group 13" transform="translate(0 0)">
        <path id="Path_28" data-name="Path 28" d="M349.327,121.689a3.72,3.72,0,1,0,3.72,3.72A3.724,3.724,0,0,0,349.327,121.689Z" transform="translate(-345.607 -121.689)" fill="#474747"/>
      </g>
    </g>
  </g>
</svg>
