<svg xmlns="http://www.w3.org/2000/svg" width="28" height="28" viewBox="0 0 28 28">
  <g id="Toggle_Icon" data-name="Toggle Icon" transform="translate(-1291 342) rotate(-90)">
    <circle id="Ellipse_5" data-name="Ellipse 5" cx="14" cy="14" r="14" transform="translate(314 1291)" fill="#ebebeb"/>
    <g id="fast-forward-double-right-arrows-symbol" transform="translate(333.428 1301.517) rotate(90)">
      <g id="_x35__11_" transform="translate(-1.001 0.035)">
        <g id="Group_40" data-name="Group 40">
          <path id="Path_96" data-name="Path 96" d="M10.538,4.8,6.044.3A.908.908,0,0,0,4.76,1.585L8.612,5.437,4.76,9.289a.908.908,0,1,0,1.284,1.284l4.495-4.495A.907.907,0,0,0,10.538,4.8Zm-5.4-.272L1.566.762a.885.885,0,0,0-1.3,0,1,1,0,0,0,0,1.368l2.92,3.077L.268,8.284a1,1,0,0,0,0,1.368.885.885,0,0,0,1.3,0L5.134,5.891A1,1,0,0,0,5.134,4.523Z" transform="translate(0.001 -0.035)" fill="#00a598"/>
        </g>
      </g>
    </g>
  </g>
</svg>
