<svg id="university" xmlns="http://www.w3.org/2000/svg" width="63" height="63" viewBox="0 0 63 63">
  <path id="Path_383" data-name="Path 383" d="M220.4,407.917h8.761v12.807H220.4Z" transform="translate(-193.279 -357.724)" fill="#474747"/>
  <path id="Path_384" data-name="Path 384" d="M134.938,137.281v39.63h6.824v-16.5h16.144v16.5h6.824v-39.63l-14.9-7.387Zm8.67,18.538h-4.151v-3.691h4.151Zm0-8.3h-4.151v-3.691h4.151Zm8.3,8.3h-4.151v-3.691h4.151Zm0-8.3h-4.151v-3.691h4.151Zm4.151-3.691h4.151v3.691h-4.151Zm0,8.3h4.151v3.691h-4.151Zm-4.151-12.912h-4.151v-3.691h4.151Z" transform="translate(-118.334 -113.911)" fill="#474747"/>
  <path id="Path_385" data-name="Path 385" d="M407.062,237.445v33.783h12.912V237.445Zm8.532,27.039h-4.151v-3.691h4.151Zm0-8.3h-4.151v-3.691h4.151Zm0-8.3h-4.151v-3.691h4.151Z" transform="translate(-356.974 -208.228)" fill="#474747"/>
  <path id="Path_386" data-name="Path 386" d="M0,271.228H12.912V237.445H0Zm4.381-27.039H8.532v3.691H4.381Zm0,8.3H8.532v3.691H4.381Zm0,8.3H8.532v3.691H4.381Z" transform="translate(0 -208.228)" fill="#474747"/>
  <path id="Path_387" data-name="Path 387" d="M244.691,12.778V5.841h7.531V0H241V12.778l1.846-.915Z" transform="translate(-211.346)" fill="#474747"/>
</svg>
