<svg xmlns="http://www.w3.org/2000/svg" width="40.175" height="47.66" viewBox="0 0 40.175 47.66">
  <g id="Lab_Menu_Icon" data-name="Lab Menu Icon" transform="translate(-40.206 0)">
    <path id="Path_19" data-name="Path 19" d="M108.418,10.866H104.58V7.776a1.4,1.4,0,0,0-1.4-1.4h-.1V2.793h.1a1.4,1.4,0,0,0,0-2.793H94.21a1.4,1.4,0,0,0,0,2.793h.1V6.38h-.1a1.4,1.4,0,0,0-1.4,1.4V22.732a1.4,1.4,0,0,0,1.4,1.4h8.974a1.4,1.4,0,0,0,1.4-1.4v-3.09h3.838c9.067.359,9.048,13.3,0,13.659H89.723a1.4,1.4,0,0,0-1.4,1.4v7.379h20.091a15.622,15.622,0,0,0,15.6-15.6h0a15.622,15.622,0,0,0-15.6-15.6Zm-5.235,8.775a4.388,4.388,0,1,1,4.388-4.387A4.392,4.392,0,0,1,103.184,19.641Z" transform="translate(-43.641)" fill="#ebebeb"/>
    <path id="Path_20" data-name="Path 20" d="M159.972,291.993a1.4,1.4,0,0,0,1.4-1.4v-1.4h-8.775v1.4a1.4,1.4,0,0,0,1.4,1.4Z" transform="translate(-101.925 -262.279)" fill="#ebebeb"/>
    <path id="Path_21" data-name="Path 21" d="M68.516,482H41.6a1.4,1.4,0,0,0,0,2.793H68.516A1.4,1.4,0,0,0,68.516,482Z" transform="translate(0 -437.132)" fill="#ebebeb"/>
    <path id="Path_22" data-name="Path 22" d="M232.389,146.733a1.595,1.595,0,1,0,1.595,1.595A1.6,1.6,0,0,0,232.389,146.733Z" transform="translate(-172.847 -133.074)" fill="#ebebeb"/>
  </g>
</svg>
